<mxfile host="www.draw.io" modified="2020-03-08T04:58:54.394Z" agent="Mozilla/5.0 (Windows NT 10.0; Win64; x64) AppleWebKit/537.36 (KHTML, like Gecko) Chrome/79.0.3945.130 Safari/537.36" etag="tKdebKiPlJM4SSr6-0S-" version="12.8.1" type="github">
  <diagram id="HaypddCMn4GJKSfDNTMn" name="第 1 页">
    <mxGraphModel dx="868" dy="3995" grid="1" gridSize="10" guides="1" tooltips="1" connect="1" arrows="1" fold="1" page="1" pageScale="1" pageWidth="827" pageHeight="1169" math="0" shadow="0">
      <root>
        <mxCell id="0" />
        <mxCell id="1" parent="0" />
        <mxCell id="xdbv4cudd_OSbG77WNhc-2" value="" style="edgeStyle=orthogonalEdgeStyle;rounded=0;orthogonalLoop=1;jettySize=auto;html=1;" parent="1" source="6u7h2ixZPunD_qiW9e1f-1" target="xdbv4cudd_OSbG77WNhc-1" edge="1">
          <mxGeometry relative="1" as="geometry" />
        </mxCell>
        <mxCell id="6u7h2ixZPunD_qiW9e1f-1" value="&lt;div style=&quot;color: rgb(238 , 255 , 255) ; background-color: rgb(38 , 50 , 56) ; font-family: &amp;#34;consolas&amp;#34; , &amp;#34;courier new&amp;#34; , monospace ; font-size: 14px ; line-height: 19px ; white-space: pre&quot;&gt;&lt;span style=&quot;color: #82aaff&quot;&gt;Vue&lt;/span&gt;&lt;/div&gt;" style="rounded=1;whiteSpace=wrap;html=1;" parent="1" vertex="1">
          <mxGeometry x="270" y="-1940" width="120" height="60" as="geometry" />
        </mxCell>
        <mxCell id="6u7h2ixZPunD_qiW9e1f-8" value="" style="edgeStyle=orthogonalEdgeStyle;rounded=0;orthogonalLoop=1;jettySize=auto;html=1;" parent="1" source="6u7h2ixZPunD_qiW9e1f-2" target="6u7h2ixZPunD_qiW9e1f-5" edge="1">
          <mxGeometry relative="1" as="geometry" />
        </mxCell>
        <mxCell id="6u7h2ixZPunD_qiW9e1f-2" value="&lt;div style=&quot;color: rgb(238 , 255 , 255) ; background-color: rgb(38 , 50 , 56) ; font-family: &amp;#34;consolas&amp;#34; , &amp;#34;courier new&amp;#34; , monospace ; font-size: 14px ; line-height: 19px ; white-space: pre&quot;&gt;&lt;span style=&quot;color: #82aaff&quot;&gt;initLifecycle()&lt;/span&gt;&lt;/div&gt;" style="rounded=1;whiteSpace=wrap;html=1;" parent="1" vertex="1">
          <mxGeometry x="270" y="-1660" width="120" height="60" as="geometry" />
        </mxCell>
        <mxCell id="6u7h2ixZPunD_qiW9e1f-12" value="" style="edgeStyle=orthogonalEdgeStyle;rounded=0;orthogonalLoop=1;jettySize=auto;html=1;" parent="1" source="6u7h2ixZPunD_qiW9e1f-3" target="6u7h2ixZPunD_qiW9e1f-11" edge="1">
          <mxGeometry relative="1" as="geometry" />
        </mxCell>
        <mxCell id="6u7h2ixZPunD_qiW9e1f-3" value="&lt;div style=&quot;color: rgb(238 , 255 , 255) ; background-color: rgb(38 , 50 , 56) ; font-family: &amp;#34;consolas&amp;#34; , &amp;#34;courier new&amp;#34; , monospace ; font-size: 14px ; line-height: 19px ; white-space: pre&quot;&gt;&lt;span style=&quot;color: #82aaff&quot;&gt;initInjections&lt;/span&gt;&lt;/div&gt;" style="rounded=1;whiteSpace=wrap;html=1;" parent="1" vertex="1">
          <mxGeometry x="270" y="-1170" width="120" height="60" as="geometry" />
        </mxCell>
        <mxCell id="6u7h2ixZPunD_qiW9e1f-6" value="" style="edgeStyle=orthogonalEdgeStyle;rounded=0;orthogonalLoop=1;jettySize=auto;html=1;" parent="1" source="6u7h2ixZPunD_qiW9e1f-4" target="6u7h2ixZPunD_qiW9e1f-3" edge="1">
          <mxGeometry relative="1" as="geometry">
            <Array as="points">
              <mxPoint x="330" y="-1270" />
              <mxPoint x="330" y="-1270" />
            </Array>
          </mxGeometry>
        </mxCell>
        <mxCell id="6u7h2ixZPunD_qiW9e1f-4" value="&lt;div style=&quot;color: rgb(238 , 255 , 255) ; background-color: rgb(38 , 50 , 56) ; font-family: &amp;#34;consolas&amp;#34; , &amp;#34;courier new&amp;#34; , monospace ; font-size: 14px ; line-height: 19px ; white-space: pre&quot;&gt;&lt;span style=&quot;color: #82aaff&quot;&gt;initRender&lt;/span&gt;&lt;/div&gt;" style="rounded=1;whiteSpace=wrap;html=1;" parent="1" vertex="1">
          <mxGeometry x="270" y="-1410" width="120" height="60" as="geometry" />
        </mxCell>
        <mxCell id="6u7h2ixZPunD_qiW9e1f-9" value="" style="edgeStyle=orthogonalEdgeStyle;rounded=0;orthogonalLoop=1;jettySize=auto;html=1;" parent="1" source="6u7h2ixZPunD_qiW9e1f-5" target="6u7h2ixZPunD_qiW9e1f-4" edge="1">
          <mxGeometry relative="1" as="geometry" />
        </mxCell>
        <mxCell id="6u7h2ixZPunD_qiW9e1f-5" value="&lt;div style=&quot;color: rgb(238 , 255 , 255) ; background-color: rgb(38 , 50 , 56) ; font-family: &amp;#34;consolas&amp;#34; , &amp;#34;courier new&amp;#34; , monospace ; font-size: 14px ; line-height: 19px ; white-space: pre&quot;&gt;&lt;span style=&quot;color: #82aaff&quot;&gt;initEvents&lt;/span&gt;&lt;/div&gt;" style="rounded=1;whiteSpace=wrap;html=1;" parent="1" vertex="1">
          <mxGeometry x="270" y="-1540" width="120" height="60" as="geometry" />
        </mxCell>
        <mxCell id="6u7h2ixZPunD_qiW9e1f-7" value="&lt;div style=&quot;color: rgb(238 , 255 , 255) ; background-color: rgb(38 , 50 , 56) ; font-family: &amp;#34;consolas&amp;#34; , &amp;#34;courier new&amp;#34; , monospace ; font-size: 14px ; line-height: 19px ; white-space: pre&quot;&gt;&lt;span style=&quot;color: #c3e88d&quot;&gt;hook.beforeCreate&lt;/span&gt;&lt;/div&gt;" style="text;html=1;strokeColor=none;fillColor=none;align=center;verticalAlign=middle;whiteSpace=wrap;rounded=0;" parent="1" vertex="1">
          <mxGeometry x="367" y="-1270" width="70" height="20" as="geometry" />
        </mxCell>
        <mxCell id="6u7h2ixZPunD_qiW9e1f-21" value="" style="edgeStyle=orthogonalEdgeStyle;rounded=0;orthogonalLoop=1;jettySize=auto;html=1;" parent="1" source="6u7h2ixZPunD_qiW9e1f-11" target="6u7h2ixZPunD_qiW9e1f-13" edge="1">
          <mxGeometry relative="1" as="geometry" />
        </mxCell>
        <mxCell id="6u7h2ixZPunD_qiW9e1f-29" value="" style="edgeStyle=orthogonalEdgeStyle;rounded=0;orthogonalLoop=1;jettySize=auto;html=1;" parent="1" source="6u7h2ixZPunD_qiW9e1f-11" target="6u7h2ixZPunD_qiW9e1f-28" edge="1">
          <mxGeometry relative="1" as="geometry" />
        </mxCell>
        <mxCell id="6u7h2ixZPunD_qiW9e1f-11" value="&lt;div style=&quot;color: rgb(238 , 255 , 255) ; background-color: rgb(38 , 50 , 56) ; font-family: &amp;#34;consolas&amp;#34; , &amp;#34;courier new&amp;#34; , monospace ; font-size: 14px ; line-height: 19px ; white-space: pre&quot;&gt;&lt;span style=&quot;color: #82aaff&quot;&gt;initState&lt;/span&gt;&lt;/div&gt;" style="rounded=1;whiteSpace=wrap;html=1;" parent="1" vertex="1">
          <mxGeometry x="270" y="-1020" width="120" height="60" as="geometry" />
        </mxCell>
        <mxCell id="6u7h2ixZPunD_qiW9e1f-22" value="" style="edgeStyle=orthogonalEdgeStyle;rounded=0;orthogonalLoop=1;jettySize=auto;html=1;" parent="1" source="6u7h2ixZPunD_qiW9e1f-13" target="6u7h2ixZPunD_qiW9e1f-14" edge="1">
          <mxGeometry relative="1" as="geometry" />
        </mxCell>
        <mxCell id="6u7h2ixZPunD_qiW9e1f-13" value="&lt;div style=&quot;color: rgb(238 , 255 , 255) ; background-color: rgb(38 , 50 , 56) ; font-family: &amp;#34;consolas&amp;#34; , &amp;#34;courier new&amp;#34; , monospace ; font-size: 14px ; line-height: 19px ; white-space: pre&quot;&gt;&lt;span style=&quot;color: #82aaff&quot;&gt;initProps&lt;/span&gt;&lt;/div&gt;" style="rounded=1;whiteSpace=wrap;html=1;" parent="1" vertex="1">
          <mxGeometry x="423.5" y="-1020" width="120" height="60" as="geometry" />
        </mxCell>
        <mxCell id="6u7h2ixZPunD_qiW9e1f-23" value="" style="edgeStyle=orthogonalEdgeStyle;rounded=0;orthogonalLoop=1;jettySize=auto;html=1;" parent="1" source="6u7h2ixZPunD_qiW9e1f-14" target="6u7h2ixZPunD_qiW9e1f-15" edge="1">
          <mxGeometry relative="1" as="geometry" />
        </mxCell>
        <mxCell id="6u7h2ixZPunD_qiW9e1f-14" value="&lt;div style=&quot;color: rgb(238 , 255 , 255) ; background-color: rgb(38 , 50 , 56) ; font-family: &amp;#34;consolas&amp;#34; , &amp;#34;courier new&amp;#34; , monospace ; font-size: 14px ; line-height: 19px ; white-space: pre&quot;&gt;&lt;span style=&quot;color: #82aaff&quot;&gt;initMethods&lt;/span&gt;&lt;/div&gt;" style="rounded=1;whiteSpace=wrap;html=1;" parent="1" vertex="1">
          <mxGeometry x="570" y="-1020" width="120" height="60" as="geometry" />
        </mxCell>
        <mxCell id="6u7h2ixZPunD_qiW9e1f-25" value="" style="edgeStyle=orthogonalEdgeStyle;rounded=0;orthogonalLoop=1;jettySize=auto;html=1;" parent="1" source="6u7h2ixZPunD_qiW9e1f-15" target="6u7h2ixZPunD_qiW9e1f-24" edge="1">
          <mxGeometry relative="1" as="geometry" />
        </mxCell>
        <mxCell id="6u7h2ixZPunD_qiW9e1f-15" value="&lt;div style=&quot;color: rgb(238 , 255 , 255) ; background-color: rgb(38 , 50 , 56) ; font-family: &amp;#34;consolas&amp;#34; , &amp;#34;courier new&amp;#34; , monospace ; font-size: 14px ; line-height: 19px ; white-space: pre&quot;&gt;&lt;span style=&quot;color: #82aaff&quot;&gt;initData&lt;/span&gt;&lt;/div&gt;" style="rounded=1;whiteSpace=wrap;html=1;" parent="1" vertex="1">
          <mxGeometry x="717" y="-1020" width="120" height="60" as="geometry" />
        </mxCell>
        <mxCell id="6u7h2ixZPunD_qiW9e1f-27" value="" style="edgeStyle=orthogonalEdgeStyle;rounded=0;orthogonalLoop=1;jettySize=auto;html=1;" parent="1" source="6u7h2ixZPunD_qiW9e1f-24" target="6u7h2ixZPunD_qiW9e1f-26" edge="1">
          <mxGeometry relative="1" as="geometry" />
        </mxCell>
        <mxCell id="6u7h2ixZPunD_qiW9e1f-24" value="&lt;div style=&quot;color: rgb(238 , 255 , 255) ; background-color: rgb(38 , 50 , 56) ; font-family: &amp;#34;consolas&amp;#34; , &amp;#34;courier new&amp;#34; , monospace ; font-size: 14px ; line-height: 19px ; white-space: pre&quot;&gt;&lt;span style=&quot;color: #82aaff&quot;&gt;initComputed&lt;/span&gt;&lt;/div&gt;" style="rounded=1;whiteSpace=wrap;html=1;" parent="1" vertex="1">
          <mxGeometry x="870" y="-1020" width="120" height="60" as="geometry" />
        </mxCell>
        <mxCell id="6u7h2ixZPunD_qiW9e1f-26" value="&lt;div style=&quot;color: rgb(238 , 255 , 255) ; background-color: rgb(38 , 50 , 56) ; font-family: &amp;#34;consolas&amp;#34; , &amp;#34;courier new&amp;#34; , monospace ; font-size: 14px ; line-height: 19px ; white-space: pre&quot;&gt;&lt;span style=&quot;color: #82aaff&quot;&gt;initWatch&lt;/span&gt;&lt;/div&gt;" style="rounded=1;whiteSpace=wrap;html=1;" parent="1" vertex="1">
          <mxGeometry x="1030" y="-1020" width="120" height="60" as="geometry" />
        </mxCell>
        <mxCell id="6u7h2ixZPunD_qiW9e1f-31" value="" style="edgeStyle=orthogonalEdgeStyle;rounded=0;orthogonalLoop=1;jettySize=auto;html=1;" parent="1" source="6u7h2ixZPunD_qiW9e1f-28" edge="1">
          <mxGeometry relative="1" as="geometry">
            <mxPoint x="330" y="-780" as="targetPoint" />
          </mxGeometry>
        </mxCell>
        <mxCell id="6u7h2ixZPunD_qiW9e1f-28" value="&lt;div style=&quot;color: rgb(238 , 255 , 255) ; background-color: rgb(38 , 50 , 56) ; font-family: &amp;#34;consolas&amp;#34; , &amp;#34;courier new&amp;#34; , monospace ; font-size: 14px ; line-height: 19px ; white-space: pre&quot;&gt;&lt;span style=&quot;color: #82aaff&quot;&gt;initProvide&lt;/span&gt;&lt;/div&gt;" style="rounded=1;whiteSpace=wrap;html=1;" parent="1" vertex="1">
          <mxGeometry x="270" y="-920" width="120" height="60" as="geometry" />
        </mxCell>
        <mxCell id="6u7h2ixZPunD_qiW9e1f-32" value="&lt;div style=&quot;color: rgb(238 , 255 , 255) ; background-color: rgb(38 , 50 , 56) ; font-family: &amp;#34;consolas&amp;#34; , &amp;#34;courier new&amp;#34; , monospace ; font-size: 14px ; line-height: 19px ; white-space: pre&quot;&gt;&lt;span style=&quot;color: #c3e88d&quot;&gt;hook.created&lt;/span&gt;&lt;/div&gt;" style="text;html=1;align=center;verticalAlign=middle;resizable=0;points=[];autosize=1;" parent="1" vertex="1">
          <mxGeometry x="350" y="-830" width="110" height="20" as="geometry" />
        </mxCell>
        <mxCell id="6u7h2ixZPunD_qiW9e1f-33" value="&lt;div style=&quot;color: rgb(238 , 255 , 255) ; background-color: rgb(38 , 50 , 56) ; font-family: &amp;#34;consolas&amp;#34; , &amp;#34;courier new&amp;#34; , monospace ; font-size: 14px ; line-height: 19px ; white-space: pre&quot;&gt;&lt;span style=&quot;color: #82aaff&quot;&gt;$mount&lt;/span&gt;&lt;/div&gt;" style="rounded=1;whiteSpace=wrap;html=1;" parent="1" vertex="1">
          <mxGeometry x="270" y="-780" width="120" height="60" as="geometry" />
        </mxCell>
        <mxCell id="6u7h2ixZPunD_qiW9e1f-37" style="edgeStyle=orthogonalEdgeStyle;rounded=0;orthogonalLoop=1;jettySize=auto;html=1;exitX=1;exitY=0.5;exitDx=0;exitDy=0;entryX=0.25;entryY=0;entryDx=0;entryDy=0;" parent="1" source="6u7h2ixZPunD_qiW9e1f-34" target="6u7h2ixZPunD_qiW9e1f-1" edge="1">
          <mxGeometry relative="1" as="geometry">
            <mxPoint x="210" y="-2049" as="sourcePoint" />
          </mxGeometry>
        </mxCell>
        <mxCell id="6u7h2ixZPunD_qiW9e1f-34" value="&lt;div style=&quot;color: rgb(238 , 255 , 255) ; background-color: rgb(38 , 50 , 56) ; font-family: &amp;#34;consolas&amp;#34; , &amp;#34;courier new&amp;#34; , monospace ; font-size: 14px ; line-height: 19px ; white-space: pre&quot;&gt;&lt;span style=&quot;color: #82aaff&quot;&gt;initMixin&lt;/span&gt;&lt;/div&gt;" style="rounded=1;whiteSpace=wrap;html=1;" parent="1" vertex="1">
          <mxGeometry x="80" y="-2080" width="120" height="60" as="geometry" />
        </mxCell>
        <mxCell id="6u7h2ixZPunD_qiW9e1f-44" style="edgeStyle=orthogonalEdgeStyle;rounded=0;orthogonalLoop=1;jettySize=auto;html=1;entryX=0.5;entryY=0;entryDx=0;entryDy=0;" parent="1" source="6u7h2ixZPunD_qiW9e1f-46" target="6u7h2ixZPunD_qiW9e1f-1" edge="1">
          <mxGeometry relative="1" as="geometry" />
        </mxCell>
        <mxCell id="6u7h2ixZPunD_qiW9e1f-38" value="&lt;div style=&quot;color: rgb(238 , 255 , 255) ; background-color: rgb(38 , 50 , 56) ; font-family: &amp;#34;consolas&amp;#34; , &amp;#34;courier new&amp;#34; , monospace ; font-size: 14px ; line-height: 19px ; white-space: pre&quot;&gt;&lt;div style=&quot;font-family: &amp;#34;consolas&amp;#34; , &amp;#34;courier new&amp;#34; , monospace ; line-height: 19px&quot;&gt;&lt;span style=&quot;color: #82aaff&quot;&gt;stateMixin&lt;/span&gt;&lt;/div&gt;&lt;/div&gt;" style="rounded=1;whiteSpace=wrap;html=1;" parent="1" vertex="1">
          <mxGeometry x="270" y="-2240" width="120" height="60" as="geometry" />
        </mxCell>
        <mxCell id="6u7h2ixZPunD_qiW9e1f-41" value="&lt;div style=&quot;color: rgb(238 , 255 , 255) ; background-color: rgb(38 , 50 , 56) ; font-family: &amp;#34;consolas&amp;#34; , &amp;#34;courier new&amp;#34; , monospace ; font-size: 14px ; line-height: 19px ; white-space: pre&quot;&gt;&lt;div style=&quot;font-family: &amp;#34;consolas&amp;#34; , &amp;#34;courier new&amp;#34; , monospace ; line-height: 19px&quot;&gt;&lt;span style=&quot;color: #82aaff&quot;&gt;renderMixin&lt;/span&gt;&lt;/div&gt;&lt;/div&gt;" style="rounded=1;whiteSpace=wrap;html=1;" parent="1" vertex="1">
          <mxGeometry x="717" y="-2130" width="120" height="60" as="geometry" />
        </mxCell>
        <mxCell id="6u7h2ixZPunD_qiW9e1f-42" value="&lt;div style=&quot;color: rgb(238 , 255 , 255) ; background-color: rgb(38 , 50 , 56) ; font-family: &amp;#34;consolas&amp;#34; , &amp;#34;courier new&amp;#34; , monospace ; font-size: 14px ; line-height: 19px ; white-space: pre&quot;&gt;&lt;div style=&quot;font-family: &amp;#34;consolas&amp;#34; , &amp;#34;courier new&amp;#34; , monospace ; line-height: 19px&quot;&gt;&lt;div style=&quot;line-height: 19px&quot;&gt;&lt;span style=&quot;color: #82aaff&quot;&gt;lifecycleMixin&lt;/span&gt;&lt;/div&gt;&lt;/div&gt;&lt;/div&gt;" style="rounded=1;whiteSpace=wrap;html=1;" parent="1" vertex="1">
          <mxGeometry x="570" y="-2130" width="120" height="60" as="geometry" />
        </mxCell>
        <mxCell id="6u7h2ixZPunD_qiW9e1f-43" value="&lt;div style=&quot;color: rgb(238 , 255 , 255) ; background-color: rgb(38 , 50 , 56) ; font-family: &amp;#34;consolas&amp;#34; , &amp;#34;courier new&amp;#34; , monospace ; font-size: 14px ; line-height: 19px ; white-space: pre&quot;&gt;&lt;span style=&quot;color: #82aaff&quot;&gt;_init&lt;/span&gt;&lt;/div&gt;" style="text;html=1;" parent="1" vertex="1">
          <mxGeometry x="230" y="-2065" width="50" height="30" as="geometry" />
        </mxCell>
        <mxCell id="6u7h2ixZPunD_qiW9e1f-45" value="&lt;div style=&quot;color: rgb(238 , 255 , 255) ; background-color: rgb(38 , 50 , 56) ; font-family: &amp;#34;consolas&amp;#34; , &amp;#34;courier new&amp;#34; , monospace ; font-size: 14px ; line-height: 19px ; white-space: pre&quot;&gt;&lt;div style=&quot;font-family: &amp;#34;consolas&amp;#34; , &amp;#34;courier new&amp;#34; , monospace ; line-height: 19px&quot;&gt;&lt;div style=&quot;line-height: 19px&quot;&gt;&lt;div style=&quot;font-family: &amp;#34;consolas&amp;#34; , &amp;#34;courier new&amp;#34; , monospace ; line-height: 19px&quot;&gt;&lt;span style=&quot;color: #82aaff&quot;&gt;eventsMixin&lt;/span&gt;&lt;/div&gt;&lt;/div&gt;&lt;/div&gt;&lt;/div&gt;" style="rounded=1;whiteSpace=wrap;html=1;" parent="1" vertex="1">
          <mxGeometry x="423.5" y="-2130" width="120" height="60" as="geometry" />
        </mxCell>
        <mxCell id="6u7h2ixZPunD_qiW9e1f-47" value="&lt;div style=&quot;color: rgb(238 , 255 , 255) ; background-color: rgb(38 , 50 , 56) ; font-family: &amp;#34;consolas&amp;#34; , &amp;#34;courier new&amp;#34; , monospace ; font-size: 14px ; line-height: 19px ; white-space: pre&quot;&gt;&lt;span style=&quot;color: #c3e88d&quot;&gt;$props&lt;/span&gt;&lt;/div&gt;" style="text;html=1;align=center;verticalAlign=middle;resizable=0;points=[];autosize=1;" parent="1" vertex="1">
          <mxGeometry x="300" y="-2100" width="60" height="20" as="geometry" />
        </mxCell>
        <mxCell id="6u7h2ixZPunD_qiW9e1f-48" value="&lt;div style=&quot;color: rgb(238 , 255 , 255) ; background-color: rgb(38 , 50 , 56) ; font-family: &amp;#34;consolas&amp;#34; , &amp;#34;courier new&amp;#34; , monospace ; font-size: 14px ; line-height: 19px ; white-space: pre&quot;&gt;$set&lt;/div&gt;" style="text;html=1;align=center;verticalAlign=middle;resizable=0;points=[];autosize=1;" parent="1" vertex="1">
          <mxGeometry x="305" y="-2069" width="50" height="20" as="geometry" />
        </mxCell>
        <mxCell id="6u7h2ixZPunD_qiW9e1f-46" value="&lt;div style=&quot;color: rgb(238 , 255 , 255) ; background-color: rgb(38 , 50 , 56) ; font-family: &amp;#34;consolas&amp;#34; , &amp;#34;courier new&amp;#34; , monospace ; font-size: 14px ; line-height: 19px ; white-space: pre&quot;&gt;&lt;span style=&quot;color: #c3e88d&quot;&gt;$data&lt;/span&gt;&lt;/div&gt;" style="text;html=1;align=center;verticalAlign=middle;resizable=0;points=[];autosize=1;" parent="1" vertex="1">
          <mxGeometry x="305" y="-2140" width="50" height="20" as="geometry" />
        </mxCell>
        <mxCell id="6u7h2ixZPunD_qiW9e1f-49" style="edgeStyle=orthogonalEdgeStyle;rounded=0;orthogonalLoop=1;jettySize=auto;html=1;entryX=0.5;entryY=0;entryDx=0;entryDy=0;" parent="1" source="6u7h2ixZPunD_qiW9e1f-38" target="6u7h2ixZPunD_qiW9e1f-46" edge="1">
          <mxGeometry relative="1" as="geometry">
            <mxPoint x="330" y="-2070" as="sourcePoint" />
            <mxPoint x="330" y="-1940" as="targetPoint" />
          </mxGeometry>
        </mxCell>
        <mxCell id="6u7h2ixZPunD_qiW9e1f-50" value="&lt;div style=&quot;color: rgb(238 , 255 , 255) ; background-color: rgb(38 , 50 , 56) ; font-family: &amp;#34;consolas&amp;#34; , &amp;#34;courier new&amp;#34; , monospace ; font-size: 14px ; line-height: 19px ; white-space: pre&quot;&gt;$delete&lt;/div&gt;" style="text;html=1;" parent="1" vertex="1">
          <mxGeometry x="300" y="-2040" width="60" height="30" as="geometry" />
        </mxCell>
        <mxCell id="6u7h2ixZPunD_qiW9e1f-52" value="&lt;div style=&quot;color: rgb(238 , 255 , 255) ; background-color: rgb(38 , 50 , 56) ; font-family: &amp;#34;consolas&amp;#34; , &amp;#34;courier new&amp;#34; , monospace ; font-size: 14px ; line-height: 19px ; white-space: pre&quot;&gt;&lt;span style=&quot;color: #82aaff&quot;&gt;$watch&lt;/span&gt;&lt;/div&gt;" style="text;html=1;align=center;verticalAlign=middle;resizable=0;points=[];autosize=1;" parent="1" vertex="1">
          <mxGeometry x="305" y="-1996" width="60" height="20" as="geometry" />
        </mxCell>
        <mxCell id="6u7h2ixZPunD_qiW9e1f-54" value="" style="endArrow=classic;html=1;exitX=0.078;exitY=1.014;exitDx=0;exitDy=0;exitPerimeter=0;entryX=0.75;entryY=0;entryDx=0;entryDy=0;" parent="1" source="6u7h2ixZPunD_qiW9e1f-45" target="6u7h2ixZPunD_qiW9e1f-1" edge="1">
          <mxGeometry width="50" height="50" relative="1" as="geometry">
            <mxPoint x="440" y="-1930" as="sourcePoint" />
            <mxPoint x="490" y="-1980" as="targetPoint" />
          </mxGeometry>
        </mxCell>
        <mxCell id="6u7h2ixZPunD_qiW9e1f-55" value="&lt;div style=&quot;color: rgb(238 , 255 , 255) ; background-color: rgb(38 , 50 , 56) ; font-family: &amp;#34;consolas&amp;#34; , &amp;#34;courier new&amp;#34; , monospace ; font-size: 14px ; line-height: 19px ; white-space: pre&quot;&gt;&lt;span style=&quot;color: #82aaff&quot;&gt;$on&lt;/span&gt;&lt;/div&gt;" style="text;html=1;align=center;verticalAlign=middle;resizable=0;points=[];autosize=1;" parent="1" vertex="1">
          <mxGeometry x="390" y="-2069" width="40" height="20" as="geometry" />
        </mxCell>
        <mxCell id="6u7h2ixZPunD_qiW9e1f-58" value="&lt;div style=&quot;color: rgb(238 , 255 , 255) ; background-color: rgb(38 , 50 , 56) ; font-family: &amp;#34;consolas&amp;#34; , &amp;#34;courier new&amp;#34; , monospace ; font-size: 14px ; line-height: 19px ; white-space: pre&quot;&gt;&lt;span style=&quot;color: #82aaff&quot;&gt;$once&lt;/span&gt;&lt;/div&gt;" style="text;html=1;align=center;verticalAlign=middle;resizable=0;points=[];autosize=1;" parent="1" vertex="1">
          <mxGeometry x="410" y="-2040" width="50" height="20" as="geometry" />
        </mxCell>
        <mxCell id="6u7h2ixZPunD_qiW9e1f-59" value="&lt;div style=&quot;color: rgb(238 , 255 , 255) ; background-color: rgb(38 , 50 , 56) ; font-family: &amp;#34;consolas&amp;#34; , &amp;#34;courier new&amp;#34; , monospace ; font-size: 14px ; line-height: 19px ; white-space: pre&quot;&gt;&lt;span style=&quot;color: #82aaff&quot;&gt;$off&lt;/span&gt;&lt;/div&gt;" style="text;html=1;align=center;verticalAlign=middle;resizable=0;points=[];autosize=1;" parent="1" vertex="1">
          <mxGeometry x="365" y="-2020" width="50" height="20" as="geometry" />
        </mxCell>
        <mxCell id="6u7h2ixZPunD_qiW9e1f-60" value="&lt;div style=&quot;color: rgb(238 , 255 , 255) ; background-color: rgb(38 , 50 , 56) ; font-family: &amp;#34;consolas&amp;#34; , &amp;#34;courier new&amp;#34; , monospace ; font-size: 14px ; line-height: 19px ; white-space: pre&quot;&gt;&lt;span style=&quot;color: #82aaff&quot;&gt;$emit&lt;/span&gt;&lt;/div&gt;" style="text;html=1;align=center;verticalAlign=middle;resizable=0;points=[];autosize=1;" parent="1" vertex="1">
          <mxGeometry x="385" y="-1996" width="50" height="20" as="geometry" />
        </mxCell>
        <mxCell id="6u7h2ixZPunD_qiW9e1f-63" value="" style="endArrow=classic;html=1;exitX=0.25;exitY=1;exitDx=0;exitDy=0;entryX=1;entryY=0;entryDx=0;entryDy=0;" parent="1" source="6u7h2ixZPunD_qiW9e1f-42" target="6u7h2ixZPunD_qiW9e1f-1" edge="1">
          <mxGeometry width="50" height="50" relative="1" as="geometry">
            <mxPoint x="440" y="-1910" as="sourcePoint" />
            <mxPoint x="490" y="-1960" as="targetPoint" />
          </mxGeometry>
        </mxCell>
        <mxCell id="6u7h2ixZPunD_qiW9e1f-64" value="&lt;div style=&quot;color: rgb(238 , 255 , 255) ; background-color: rgb(38 , 50 , 56) ; font-family: &amp;#34;consolas&amp;#34; , &amp;#34;courier new&amp;#34; , monospace ; font-size: 14px ; line-height: 19px ; white-space: pre&quot;&gt;&lt;span style=&quot;color: #82aaff&quot;&gt;_update&lt;/span&gt;&lt;/div&gt;" style="text;html=1;align=center;verticalAlign=middle;resizable=0;points=[];autosize=1;" parent="1" vertex="1">
          <mxGeometry x="530" y="-2049" width="70" height="20" as="geometry" />
        </mxCell>
        <mxCell id="6u7h2ixZPunD_qiW9e1f-65" value="&lt;div style=&quot;color: rgb(238 , 255 , 255) ; background-color: rgb(38 , 50 , 56) ; font-family: &amp;#34;consolas&amp;#34; , &amp;#34;courier new&amp;#34; , monospace ; font-size: 14px ; line-height: 19px ; white-space: pre&quot;&gt;&lt;span style=&quot;color: #82aaff&quot;&gt;$forceUpdate&lt;/span&gt;&lt;/div&gt;" style="text;html=1;align=center;verticalAlign=middle;resizable=0;points=[];autosize=1;" parent="1" vertex="1">
          <mxGeometry x="480" y="-2020" width="110" height="20" as="geometry" />
        </mxCell>
        <mxCell id="6u7h2ixZPunD_qiW9e1f-66" value="&lt;div style=&quot;color: rgb(238 , 255 , 255) ; background-color: rgb(38 , 50 , 56) ; font-family: &amp;#34;consolas&amp;#34; , &amp;#34;courier new&amp;#34; , monospace ; font-size: 14px ; line-height: 19px ; white-space: pre&quot;&gt;&lt;span style=&quot;color: #82aaff&quot;&gt;$destroy&lt;/span&gt;&lt;/div&gt;" style="text;html=1;align=center;verticalAlign=middle;resizable=0;points=[];autosize=1;" parent="1" vertex="1">
          <mxGeometry x="443.5" y="-1990" width="80" height="20" as="geometry" />
        </mxCell>
        <mxCell id="6u7h2ixZPunD_qiW9e1f-67" value="" style="endArrow=classic;html=1;exitX=0.5;exitY=1;exitDx=0;exitDy=0;entryX=1.01;entryY=0.389;entryDx=0;entryDy=0;entryPerimeter=0;" parent="1" source="6u7h2ixZPunD_qiW9e1f-41" target="6u7h2ixZPunD_qiW9e1f-1" edge="1">
          <mxGeometry width="50" height="50" relative="1" as="geometry">
            <mxPoint x="440" y="-1920" as="sourcePoint" />
            <mxPoint x="410" y="-1900" as="targetPoint" />
          </mxGeometry>
        </mxCell>
        <mxCell id="6u7h2ixZPunD_qiW9e1f-68" value="&lt;div style=&quot;color: rgb(238 , 255 , 255) ; background-color: rgb(38 , 50 , 56) ; font-family: &amp;#34;consolas&amp;#34; , &amp;#34;courier new&amp;#34; , monospace ; font-size: 14px ; line-height: 19px ; white-space: pre&quot;&gt;&lt;div style=&quot;font-family: &amp;#34;consolas&amp;#34; , &amp;#34;courier new&amp;#34; , monospace ; line-height: 19px&quot;&gt;&lt;span style=&quot;color: #82aaff&quot;&gt;$nextTick&lt;/span&gt;&lt;/div&gt;&lt;/div&gt;" style="text;html=1;align=center;verticalAlign=middle;resizable=0;points=[];autosize=1;" parent="1" vertex="1">
          <mxGeometry x="620" y="-2029" width="80" height="20" as="geometry" />
        </mxCell>
        <mxCell id="6u7h2ixZPunD_qiW9e1f-69" value="&lt;div style=&quot;color: rgb(238 , 255 , 255) ; background-color: rgb(38 , 50 , 56) ; font-family: &amp;#34;consolas&amp;#34; , &amp;#34;courier new&amp;#34; , monospace ; font-size: 14px ; line-height: 19px ; white-space: pre&quot;&gt;&lt;span style=&quot;color: #82aaff&quot;&gt;_render&lt;/span&gt;&lt;/div&gt;" style="text;html=1;align=center;verticalAlign=middle;resizable=0;points=[];autosize=1;" parent="1" vertex="1">
          <mxGeometry x="590" y="-2000" width="70" height="20" as="geometry" />
        </mxCell>
        <mxCell id="6u7h2ixZPunD_qiW9e1f-70" value="&lt;div style=&quot;color: rgb(238 , 255 , 255) ; background-color: rgb(38 , 50 , 56) ; font-family: &amp;#34;consolas&amp;#34; , &amp;#34;courier new&amp;#34; , monospace ; font-size: 14px ; line-height: 19px ; white-space: pre&quot;&gt;&lt;span style=&quot;color: #82aaff&quot;&gt;RenderHelpers&lt;/span&gt;&lt;/div&gt;" style="text;html=1;align=center;verticalAlign=middle;resizable=0;points=[];autosize=1;" parent="1" vertex="1">
          <mxGeometry x="680" y="-2060" width="120" height="20" as="geometry" />
        </mxCell>
        <mxCell id="6u7h2ixZPunD_qiW9e1f-72" value="&lt;span style=&quot;color: rgb(130 , 170 , 255) ; font-family: &amp;#34;consolas&amp;#34; , &amp;#34;courier new&amp;#34; , monospace ; font-size: 14px ; text-align: left ; white-space: pre ; background-color: rgb(38 , 50 , 56)&quot;&gt;_init()&lt;/span&gt;" style="text;html=1;align=center;verticalAlign=middle;resizable=0;points=[];autosize=1;" parent="1" vertex="1">
          <mxGeometry x="315" y="-1740" width="70" height="20" as="geometry" />
        </mxCell>
        <mxCell id="Anq4O1ZWj0-ePRSyiXMI-1" value="&lt;div style=&quot;text-align: left&quot;&gt;&lt;font color=&quot;#82aaff&quot; face=&quot;consolas, courier new, monospace&quot;&gt;&lt;span style=&quot;font-size: 14px ; white-space: pre ; background-color: rgb(38 , 50 , 56)&quot;&gt;uid,_isVue,_self&lt;/span&gt;&lt;/font&gt;&lt;/div&gt;" style="text;html=1;align=center;verticalAlign=middle;resizable=0;points=[];autosize=1;" parent="1" vertex="1">
          <mxGeometry x="423.5" y="-1760" width="140" height="20" as="geometry" />
        </mxCell>
        <mxCell id="xdbv4cudd_OSbG77WNhc-3" value="" style="edgeStyle=orthogonalEdgeStyle;rounded=0;orthogonalLoop=1;jettySize=auto;html=1;" parent="1" source="xdbv4cudd_OSbG77WNhc-1" target="6u7h2ixZPunD_qiW9e1f-2" edge="1">
          <mxGeometry relative="1" as="geometry" />
        </mxCell>
        <mxCell id="xdbv4cudd_OSbG77WNhc-1" value="&lt;span style=&quot;color: rgb(130 , 170 , 255) ; font-family: &amp;#34;consolas&amp;#34; , &amp;#34;courier new&amp;#34; , monospace ; font-size: 14px ; white-space: pre ; background-color: rgb(38 , 50 , 56)&quot;&gt;new Vue()&lt;/span&gt;" style="rounded=1;whiteSpace=wrap;html=1;" parent="1" vertex="1">
          <mxGeometry x="270" y="-1830" width="120" height="60" as="geometry" />
        </mxCell>
        <mxCell id="Anq4O1ZWj0-ePRSyiXMI-6" value="&lt;div style=&quot;color: rgb(238 , 255 , 255) ; background-color: rgb(38 , 50 , 56) ; font-family: &amp;#34;consolas&amp;#34; , &amp;#34;courier new&amp;#34; , monospace ; font-size: 14px ; line-height: 19px ; white-space: pre&quot;&gt;$parent,$root,$children,$refs&lt;/div&gt;" style="text;html=1;align=center;verticalAlign=middle;resizable=0;points=[];autosize=1;" parent="1" vertex="1">
          <mxGeometry x="445" y="-1670" width="240" height="20" as="geometry" />
        </mxCell>
        <mxCell id="Anq4O1ZWj0-ePRSyiXMI-7" value="" style="endArrow=none;html=1;exitX=1;exitY=0.5;exitDx=0;exitDy=0;entryX=0.008;entryY=0.85;entryDx=0;entryDy=0;entryPerimeter=0;" parent="1" source="6u7h2ixZPunD_qiW9e1f-2" target="Anq4O1ZWj0-ePRSyiXMI-6" edge="1">
          <mxGeometry width="50" height="50" relative="1" as="geometry">
            <mxPoint x="500" y="-1540" as="sourcePoint" />
            <mxPoint x="550" y="-1590" as="targetPoint" />
          </mxGeometry>
        </mxCell>
        <mxCell id="Anq4O1ZWj0-ePRSyiXMI-8" value="&lt;div style=&quot;color: rgb(238 , 255 , 255) ; background-color: rgb(38 , 50 , 56) ; font-family: &amp;#34;consolas&amp;#34; , &amp;#34;courier new&amp;#34; , monospace ; font-size: 14px ; line-height: 19px ; white-space: pre&quot;&gt;_watcher,_inactive,_directInactive,&lt;/div&gt;&lt;div style=&quot;color: rgb(238 , 255 , 255) ; background-color: rgb(38 , 50 , 56) ; font-family: &amp;#34;consolas&amp;#34; , &amp;#34;courier new&amp;#34; , monospace ; font-size: 14px ; line-height: 19px ; white-space: pre&quot;&gt;_isMounted,_isDestroyed,_isBeingDestroyed&lt;/div&gt;" style="text;html=1;align=center;verticalAlign=middle;resizable=0;points=[];autosize=1;" parent="1" vertex="1">
          <mxGeometry x="445" y="-1630" width="330" height="40" as="geometry" />
        </mxCell>
        <mxCell id="Anq4O1ZWj0-ePRSyiXMI-9" value="" style="endArrow=none;html=1;exitX=1;exitY=0.5;exitDx=0;exitDy=0;entryX=0.006;entryY=0.55;entryDx=0;entryDy=0;entryPerimeter=0;" parent="1" source="6u7h2ixZPunD_qiW9e1f-2" target="Anq4O1ZWj0-ePRSyiXMI-8" edge="1">
          <mxGeometry width="50" height="50" relative="1" as="geometry">
            <mxPoint x="430" y="-1500" as="sourcePoint" />
            <mxPoint x="480" y="-1550" as="targetPoint" />
          </mxGeometry>
        </mxCell>
        <mxCell id="Anq4O1ZWj0-ePRSyiXMI-10" value="&lt;span style=&quot;color: rgb(130 , 170 , 255) ; font-family: &amp;#34;consolas&amp;#34; , &amp;#34;courier new&amp;#34; , monospace ; font-size: 14px ; text-align: left ; white-space: pre ; background-color: rgb(38 , 50 , 56)&quot;&gt;$option&lt;/span&gt;" style="text;html=1;align=center;verticalAlign=middle;resizable=0;points=[];autosize=1;" parent="1" vertex="1">
          <mxGeometry x="423.5" y="-1725" width="70" height="20" as="geometry" />
        </mxCell>
        <mxCell id="Anq4O1ZWj0-ePRSyiXMI-11" value="" style="endArrow=none;html=1;entryX=-0.036;entryY=0.5;entryDx=0;entryDy=0;entryPerimeter=0;" parent="1" source="6u7h2ixZPunD_qiW9e1f-72" target="Anq4O1ZWj0-ePRSyiXMI-1" edge="1">
          <mxGeometry width="50" height="50" relative="1" as="geometry">
            <mxPoint x="500" y="-1680" as="sourcePoint" />
            <mxPoint x="550" y="-1730" as="targetPoint" />
          </mxGeometry>
        </mxCell>
        <mxCell id="Anq4O1ZWj0-ePRSyiXMI-12" value="" style="endArrow=none;html=1;exitX=0.929;exitY=1.1;exitDx=0;exitDy=0;exitPerimeter=0;entryX=0.1;entryY=1.05;entryDx=0;entryDy=0;entryPerimeter=0;" parent="1" source="6u7h2ixZPunD_qiW9e1f-72" target="Anq4O1ZWj0-ePRSyiXMI-10" edge="1">
          <mxGeometry width="50" height="50" relative="1" as="geometry">
            <mxPoint x="380" y="-1670" as="sourcePoint" />
            <mxPoint x="430" y="-1720" as="targetPoint" />
          </mxGeometry>
        </mxCell>
        <mxCell id="Anq4O1ZWj0-ePRSyiXMI-13" value="&lt;font color=&quot;#eeffff&quot; face=&quot;consolas, courier new, monospace&quot;&gt;&lt;span style=&quot;font-size: 14px ; white-space: pre ; background-color: rgb(38 , 50 , 56)&quot;&gt;_events,_hasHooEvents&lt;br/&gt;&lt;br/&gt;&lt;/span&gt;&lt;/font&gt;" style="text;html=1;align=center;verticalAlign=middle;resizable=0;points=[];autosize=1;" parent="1" vertex="1">
          <mxGeometry x="450" y="-1525" width="180" height="30" as="geometry" />
        </mxCell>
        <mxCell id="Anq4O1ZWj0-ePRSyiXMI-14" value="" style="endArrow=none;html=1;exitX=1;exitY=0.5;exitDx=0;exitDy=0;entryX=-0.011;entryY=0.367;entryDx=0;entryDy=0;entryPerimeter=0;" parent="1" source="6u7h2ixZPunD_qiW9e1f-5" target="Anq4O1ZWj0-ePRSyiXMI-13" edge="1">
          <mxGeometry width="50" height="50" relative="1" as="geometry">
            <mxPoint x="400" y="-1490" as="sourcePoint" />
            <mxPoint x="450" y="-1540" as="targetPoint" />
          </mxGeometry>
        </mxCell>
        <mxCell id="Anq4O1ZWj0-ePRSyiXMI-15" value="&lt;div style=&quot;color: rgb(238 , 255 , 255) ; background-color: rgb(38 , 50 , 56) ; font-family: &amp;#34;consolas&amp;#34; , &amp;#34;courier new&amp;#34; , monospace ; font-size: 14px ; line-height: 19px ; white-space: pre&quot;&gt;&lt;div&gt;_vnode,_staticTrees,_c&lt;/div&gt;&lt;div&gt;&lt;span style=&quot;color: #f07178&quot;&gt;&lt;/span&gt;&lt;/div&gt;&lt;/div&gt;" style="text;html=1;align=center;verticalAlign=middle;resizable=0;points=[];autosize=1;" parent="1" vertex="1">
          <mxGeometry x="440" y="-1440" width="180" height="20" as="geometry" />
        </mxCell>
        <mxCell id="Anq4O1ZWj0-ePRSyiXMI-16" value="&lt;div style=&quot;color: rgb(238 , 255 , 255) ; background-color: rgb(38 , 50 , 56) ; font-family: &amp;#34;consolas&amp;#34; , &amp;#34;courier new&amp;#34; , monospace ; font-size: 14px ; line-height: 19px ; white-space: pre&quot;&gt;&lt;div&gt;&lt;div style=&quot;font-family: &amp;#34;consolas&amp;#34; , &amp;#34;courier new&amp;#34; , monospace ; line-height: 19px&quot;&gt;$slots,&lt;span style=&quot;font-family: &amp;#34;consolas&amp;#34; , &amp;#34;courier new&amp;#34; , monospace&quot;&gt;$scopedSlots,&lt;/span&gt;&lt;span style=&quot;color: rgb(130 , 170 , 255) ; font-family: &amp;#34;consolas&amp;#34; , &amp;#34;courier new&amp;#34; , monospace&quot;&gt;$&lt;/span&gt;&lt;span style=&quot;color: rgb(130 , 170 , 255) ; font-family: &amp;#34;consolas&amp;#34; , &amp;#34;courier new&amp;#34; , monospace&quot;&gt;createElement&lt;/span&gt;&lt;/div&gt;&lt;/div&gt;&lt;div&gt;&lt;span style=&quot;color: #f07178&quot;&gt;&lt;/span&gt;&lt;/div&gt;&lt;/div&gt;" style="text;html=1;align=center;verticalAlign=middle;resizable=0;points=[];autosize=1;" parent="1" vertex="1">
          <mxGeometry x="437" y="-1380" width="280" height="20" as="geometry" />
        </mxCell>
        <mxCell id="Anq4O1ZWj0-ePRSyiXMI-17" value="" style="endArrow=none;html=1;exitX=1;exitY=0.5;exitDx=0;exitDy=0;entryX=0.012;entryY=0.7;entryDx=0;entryDy=0;entryPerimeter=0;" parent="1" source="6u7h2ixZPunD_qiW9e1f-4" target="Anq4O1ZWj0-ePRSyiXMI-15" edge="1">
          <mxGeometry width="50" height="50" relative="1" as="geometry">
            <mxPoint x="640" y="-1410" as="sourcePoint" />
            <mxPoint x="690" y="-1460" as="targetPoint" />
          </mxGeometry>
        </mxCell>
        <mxCell id="Anq4O1ZWj0-ePRSyiXMI-18" value="" style="endArrow=none;html=1;exitX=1.025;exitY=0.617;exitDx=0;exitDy=0;exitPerimeter=0;entryX=-0.006;entryY=0.35;entryDx=0;entryDy=0;entryPerimeter=0;" parent="1" source="6u7h2ixZPunD_qiW9e1f-4" target="Anq4O1ZWj0-ePRSyiXMI-16" edge="1">
          <mxGeometry width="50" height="50" relative="1" as="geometry">
            <mxPoint x="400" y="-1310" as="sourcePoint" />
            <mxPoint x="450" y="-1360" as="targetPoint" />
          </mxGeometry>
        </mxCell>
        <mxCell id="Anq4O1ZWj0-ePRSyiXMI-24" value="" style="edgeStyle=orthogonalEdgeStyle;rounded=0;orthogonalLoop=1;jettySize=auto;html=1;" parent="1" source="Anq4O1ZWj0-ePRSyiXMI-19" target="Anq4O1ZWj0-ePRSyiXMI-23" edge="1">
          <mxGeometry relative="1" as="geometry" />
        </mxCell>
        <mxCell id="Anq4O1ZWj0-ePRSyiXMI-19" value="&lt;div style=&quot;color: rgb(238 , 255 , 255) ; background-color: rgb(38 , 50 , 56) ; font-family: &amp;#34;consolas&amp;#34; , &amp;#34;courier new&amp;#34; , monospace ; font-size: 14px ; line-height: 19px ; white-space: pre&quot;&gt;&lt;span style=&quot;color: #82aaff&quot;&gt;defineReactive&lt;/span&gt;&lt;/div&gt;" style="rounded=1;whiteSpace=wrap;html=1;" parent="1" vertex="1">
          <mxGeometry x="970" y="-1830" width="120" height="60" as="geometry" />
        </mxCell>
        <mxCell id="Anq4O1ZWj0-ePRSyiXMI-26" value="" style="edgeStyle=orthogonalEdgeStyle;rounded=0;orthogonalLoop=1;jettySize=auto;html=1;entryX=0.463;entryY=-0.15;entryDx=0;entryDy=0;entryPerimeter=0;" parent="1" source="Anq4O1ZWj0-ePRSyiXMI-23" target="Anq4O1ZWj0-ePRSyiXMI-83" edge="1">
          <mxGeometry relative="1" as="geometry">
            <mxPoint x="1030" y="-1620" as="targetPoint" />
          </mxGeometry>
        </mxCell>
        <mxCell id="Anq4O1ZWj0-ePRSyiXMI-23" value="&lt;div style=&quot;color: rgb(238 , 255 , 255) ; background-color: rgb(38 , 50 , 56) ; font-family: &amp;#34;consolas&amp;#34; , &amp;#34;courier new&amp;#34; , monospace ; font-size: 14px ; line-height: 19px ; white-space: pre&quot;&gt;&lt;div style=&quot;font-family: &amp;#34;consolas&amp;#34; , &amp;#34;courier new&amp;#34; , monospace ; line-height: 19px&quot;&gt;&lt;div style=&quot;font-family: &amp;#34;consolas&amp;#34; , &amp;#34;courier new&amp;#34; , monospace ; line-height: 19px&quot;&gt;&lt;div style=&quot;font-family: &amp;#34;consolas&amp;#34; , &amp;#34;courier new&amp;#34; , monospace ; line-height: 19px&quot;&gt;dep&lt;span style=&quot;color: #f07178&quot;&gt;&amp;nbsp;&lt;/span&gt;&lt;span style=&quot;color: #89ddff&quot;&gt;=&lt;/span&gt;&lt;span style=&quot;color: #f07178&quot;&gt;&amp;nbsp;&lt;/span&gt;&lt;span style=&quot;color: #89ddff&quot;&gt;new&lt;/span&gt;&lt;span style=&quot;color: #f07178&quot;&gt;&amp;nbsp;&lt;/span&gt;&lt;span style=&quot;color: #ffcb6b&quot;&gt;Dep&lt;/span&gt;&lt;span style=&quot;color: #f07178&quot;&gt;()&lt;/span&gt;&lt;/div&gt;&lt;/div&gt;&lt;/div&gt;&lt;/div&gt;" style="rounded=1;whiteSpace=wrap;html=1;" parent="1" vertex="1">
          <mxGeometry x="970" y="-1730" width="120" height="60" as="geometry" />
        </mxCell>
        <mxCell id="Anq4O1ZWj0-ePRSyiXMI-27" value="&lt;div style=&quot;color: rgb(238 , 255 , 255) ; background-color: rgb(38 , 50 , 56) ; font-family: &amp;#34;consolas&amp;#34; , &amp;#34;courier new&amp;#34; , monospace ; font-size: 14px ; line-height: 19px ; white-space: pre&quot;&gt;&lt;div style=&quot;font-family: &amp;#34;consolas&amp;#34; , &amp;#34;courier new&amp;#34; , monospace ; line-height: 19px&quot;&gt;&lt;div style=&quot;font-family: &amp;#34;consolas&amp;#34; , &amp;#34;courier new&amp;#34; , monospace ; line-height: 19px&quot;&gt;&lt;div style=&quot;font-family: &amp;#34;consolas&amp;#34; , &amp;#34;courier new&amp;#34; , monospace ; line-height: 19px&quot;&gt;&lt;div style=&quot;font-family: &amp;#34;consolas&amp;#34; , &amp;#34;courier new&amp;#34; , monospace ; line-height: 19px&quot;&gt;&lt;span style=&quot;color: #82aaff&quot;&gt;defineProperty&lt;/span&gt;&lt;/div&gt;&lt;/div&gt;&lt;/div&gt;&lt;/div&gt;&lt;/div&gt;" style="rounded=1;whiteSpace=wrap;html=1;" parent="1" vertex="1">
          <mxGeometry x="962.5" y="-1510" width="135" height="60" as="geometry" />
        </mxCell>
        <mxCell id="Anq4O1ZWj0-ePRSyiXMI-20" value="&lt;div style=&quot;color: rgb(238 , 255 , 255) ; background-color: rgb(38 , 50 , 56) ; font-family: &amp;#34;consolas&amp;#34; , &amp;#34;courier new&amp;#34; , monospace ; font-size: 14px ; line-height: 19px ; white-space: pre&quot;&gt;&lt;span style=&quot;color: #82aaff&quot;&gt;defineReactive&lt;/span&gt;&lt;span style=&quot;color: #89ddff&quot;&gt;&#39;&lt;/span&gt;&lt;span style=&quot;color: #c3e88d&quot;&gt;$attrs&lt;/span&gt;&lt;span style=&quot;color: #89ddff&quot;&gt;&#39;&lt;/span&gt;&lt;/div&gt;&lt;div style=&quot;color: rgb(238 , 255 , 255) ; background-color: rgb(38 , 50 , 56) ; font-family: &amp;#34;consolas&amp;#34; , &amp;#34;courier new&amp;#34; , monospace ; font-size: 14px ; line-height: 19px ; white-space: pre&quot;&gt;&lt;div style=&quot;font-family: &amp;#34;consolas&amp;#34; , &amp;#34;courier new&amp;#34; , monospace ; line-height: 19px&quot;&gt;&lt;span style=&quot;color: #82aaff&quot;&gt;defineReactive&lt;/span&gt;&lt;span style=&quot;color: #89ddff&quot;&gt;&#39;&lt;/span&gt;&lt;span style=&quot;color: #c3e88d&quot;&gt;$&lt;/span&gt;&lt;span style=&quot;color: rgb(195 , 232 , 141)&quot;&gt;listeners&lt;/span&gt;&lt;span style=&quot;color: rgb(137 , 221 , 255)&quot;&gt;&#39;&lt;/span&gt;&lt;br&gt;&lt;/div&gt;&lt;/div&gt;" style="text;html=1;align=center;verticalAlign=middle;resizable=0;points=[];autosize=1;" parent="1" vertex="1">
          <mxGeometry x="440" y="-1340" width="220" height="40" as="geometry" />
        </mxCell>
        <mxCell id="Anq4O1ZWj0-ePRSyiXMI-21" value="" style="endArrow=none;html=1;exitX=1;exitY=0.75;exitDx=0;exitDy=0;entryX=0.001;entryY=0.597;entryDx=0;entryDy=0;entryPerimeter=0;" parent="1" source="6u7h2ixZPunD_qiW9e1f-4" target="Anq4O1ZWj0-ePRSyiXMI-20" edge="1">
          <mxGeometry width="50" height="50" relative="1" as="geometry">
            <mxPoint x="500" y="-1210" as="sourcePoint" />
            <mxPoint x="550" y="-1260" as="targetPoint" />
          </mxGeometry>
        </mxCell>
        <mxCell id="Anq4O1ZWj0-ePRSyiXMI-29" value="&lt;div style=&quot;background-color: rgb(38 , 50 , 56) ; font-family: &amp;#34;consolas&amp;#34; , &amp;#34;courier new&amp;#34; , monospace ; font-size: 14px ; line-height: 19px ; white-space: pre&quot;&gt;&lt;div style=&quot;font-family: &amp;#34;consolas&amp;#34; , &amp;#34;courier new&amp;#34; , monospace ; line-height: 19px&quot;&gt;&lt;font color=&quot;#82aaff&quot;&gt;get&lt;/font&gt;&lt;/div&gt;&lt;/div&gt;" style="text;html=1;strokeColor=none;fillColor=none;align=center;verticalAlign=middle;whiteSpace=wrap;rounded=0;" parent="1" vertex="1">
          <mxGeometry x="962.5" y="-1390" width="40" height="20" as="geometry" />
        </mxCell>
        <mxCell id="Anq4O1ZWj0-ePRSyiXMI-31" value="&lt;div style=&quot;color: rgb(238 , 255 , 255) ; background-color: rgb(38 , 50 , 56) ; font-family: &amp;#34;consolas&amp;#34; , &amp;#34;courier new&amp;#34; , monospace ; font-size: 14px ; line-height: 19px ; white-space: pre&quot;&gt;&lt;span style=&quot;color: #82aaff&quot;&gt;set&lt;/span&gt;&lt;/div&gt;" style="text;html=1;align=center;verticalAlign=middle;resizable=0;points=[];autosize=1;" parent="1" vertex="1">
          <mxGeometry x="1057.5" y="-1390" width="40" height="20" as="geometry" />
        </mxCell>
        <mxCell id="Anq4O1ZWj0-ePRSyiXMI-32" value="" style="endArrow=none;html=1;exitX=0.459;exitY=1.026;exitDx=0;exitDy=0;exitPerimeter=0;entryX=0.5;entryY=0;entryDx=0;entryDy=0;" parent="1" source="Anq4O1ZWj0-ePRSyiXMI-27" target="Anq4O1ZWj0-ePRSyiXMI-29" edge="1">
          <mxGeometry width="50" height="50" relative="1" as="geometry">
            <mxPoint x="1020" y="-1360" as="sourcePoint" />
            <mxPoint x="1070" y="-1410" as="targetPoint" />
          </mxGeometry>
        </mxCell>
        <mxCell id="Anq4O1ZWj0-ePRSyiXMI-33" value="" style="endArrow=none;html=1;exitX=0.5;exitY=1;exitDx=0;exitDy=0;entryX=0.563;entryY=0;entryDx=0;entryDy=0;entryPerimeter=0;" parent="1" source="Anq4O1ZWj0-ePRSyiXMI-27" target="Anq4O1ZWj0-ePRSyiXMI-31" edge="1">
          <mxGeometry width="50" height="50" relative="1" as="geometry">
            <mxPoint x="1020" y="-1300" as="sourcePoint" />
            <mxPoint x="1070" y="-1350" as="targetPoint" />
          </mxGeometry>
        </mxCell>
        <mxCell id="Anq4O1ZWj0-ePRSyiXMI-35" value="&lt;div style=&quot;color: rgb(238 , 255 , 255) ; background-color: rgb(38 , 50 , 56) ; font-family: &amp;#34;consolas&amp;#34; , &amp;#34;courier new&amp;#34; , monospace ; font-size: 14px ; line-height: 19px ; white-space: pre&quot;&gt;&lt;span style=&quot;color: #ffcb6b&quot;&gt;Dep&lt;/span&gt;&lt;/div&gt;" style="rounded=1;whiteSpace=wrap;html=1;" parent="1" vertex="1">
          <mxGeometry x="1310" y="-1840" width="120" height="60" as="geometry" />
        </mxCell>
        <mxCell id="Anq4O1ZWj0-ePRSyiXMI-38" value="&lt;span style=&quot;font-family: &amp;#34;consolas&amp;#34; , &amp;#34;courier new&amp;#34; , monospace ; font-size: 14px ; white-space: pre ; background-color: rgb(38 , 50 , 56) ; color: rgb(137 , 221 , 255)&quot;&gt;this.&lt;/span&gt;&lt;span style=&quot;color: rgb(238 , 255 , 255) ; font-family: &amp;#34;consolas&amp;#34; , &amp;#34;courier new&amp;#34; , monospace ; font-size: 14px ; white-space: pre ; background-color: rgb(38 , 50 , 56)&quot;&gt;id,&lt;/span&gt;&lt;span style=&quot;font-family: &amp;#34;consolas&amp;#34; , &amp;#34;courier new&amp;#34; , monospace ; font-size: 14px ; white-space: pre ; background-color: rgb(38 , 50 , 56) ; color: rgb(137 , 221 , 255)&quot;&gt;this.&lt;/span&gt;&lt;span style=&quot;color: rgb(238 , 255 , 255) ; font-family: &amp;#34;consolas&amp;#34; , &amp;#34;courier new&amp;#34; , monospace ; font-size: 14px ; white-space: pre ; background-color: rgb(38 , 50 , 56)&quot;&gt;subs:&lt;/span&gt;&lt;span style=&quot;font-family: &amp;#34;consolas&amp;#34; , &amp;#34;courier new&amp;#34; , monospace ; font-size: 14px ; white-space: pre ; background-color: rgb(38 , 50 , 56)&quot;&gt;&lt;font color=&quot;#ffcb6b&quot;&gt;Watcher[]&lt;/font&gt;&lt;/span&gt;" style="text;html=1;align=center;verticalAlign=middle;resizable=0;points=[];autosize=1;" parent="1" vertex="1">
          <mxGeometry x="1130" y="-1750" width="220" height="20" as="geometry" />
        </mxCell>
        <mxCell id="Anq4O1ZWj0-ePRSyiXMI-40" value="" style="endArrow=none;html=1;exitX=0;exitY=0.5;exitDx=0;exitDy=0;entryX=1.032;entryY=0.762;entryDx=0;entryDy=0;entryPerimeter=0;" parent="1" source="6u7h2ixZPunD_qiW9e1f-11" target="Anq4O1ZWj0-ePRSyiXMI-41" edge="1">
          <mxGeometry width="50" height="50" relative="1" as="geometry">
            <mxPoint x="150" y="-1010" as="sourcePoint" />
            <mxPoint x="200" y="-1060" as="targetPoint" />
          </mxGeometry>
        </mxCell>
        <mxCell id="Anq4O1ZWj0-ePRSyiXMI-41" value="&lt;div style=&quot;color: rgb(238 , 255 , 255) ; background-color: rgb(38 , 50 , 56) ; font-family: &amp;#34;consolas&amp;#34; , &amp;#34;courier new&amp;#34; , monospace ; font-size: 14px ; line-height: 19px ; white-space: pre&quot;&gt;_watchers&lt;/div&gt;" style="text;html=1;align=center;verticalAlign=middle;resizable=0;points=[];autosize=1;" parent="1" vertex="1">
          <mxGeometry x="130" y="-1060" width="80" height="20" as="geometry" />
        </mxCell>
        <mxCell id="Anq4O1ZWj0-ePRSyiXMI-45" value="" style="edgeStyle=orthogonalEdgeStyle;rounded=0;orthogonalLoop=1;jettySize=auto;html=1;" parent="1" source="Anq4O1ZWj0-ePRSyiXMI-42" target="Anq4O1ZWj0-ePRSyiXMI-44" edge="1">
          <mxGeometry relative="1" as="geometry" />
        </mxCell>
        <mxCell id="Anq4O1ZWj0-ePRSyiXMI-42" value="&lt;div style=&quot;color: rgb(238 , 255 , 255) ; background-color: rgb(38 , 50 , 56) ; font-family: &amp;#34;consolas&amp;#34; , &amp;#34;courier new&amp;#34; , monospace ; font-size: 14px ; line-height: 19px ; white-space: pre&quot;&gt;_data&lt;/div&gt;" style="text;html=1;align=center;verticalAlign=middle;resizable=0;points=[];autosize=1;" parent="1" vertex="1">
          <mxGeometry x="750" y="-1080" width="50" height="20" as="geometry" />
        </mxCell>
        <mxCell id="Anq4O1ZWj0-ePRSyiXMI-48" value="" style="edgeStyle=orthogonalEdgeStyle;rounded=0;orthogonalLoop=1;jettySize=auto;html=1;" parent="1" source="Anq4O1ZWj0-ePRSyiXMI-44" target="Anq4O1ZWj0-ePRSyiXMI-47" edge="1">
          <mxGeometry relative="1" as="geometry" />
        </mxCell>
        <mxCell id="Anq4O1ZWj0-ePRSyiXMI-44" value="&lt;div style=&quot;color: rgb(238 , 255 , 255) ; background-color: rgb(38 , 50 , 56) ; font-family: &amp;#34;consolas&amp;#34; , &amp;#34;courier new&amp;#34; , monospace ; font-size: 14px ; line-height: 19px ; white-space: pre&quot;&gt;&lt;div style=&quot;font-family: &amp;#34;consolas&amp;#34; , &amp;#34;courier new&amp;#34; , monospace ; line-height: 19px&quot;&gt;&lt;span style=&quot;color: #f07178&quot;&gt;&amp;nbsp;//vm.key === vm._data.key&lt;/span&gt;&lt;/div&gt;&lt;div style=&quot;font-family: &amp;#34;consolas&amp;#34; , &amp;#34;courier new&amp;#34; , monospace ; line-height: 19px&quot;&gt;&lt;span style=&quot;color: #82aaff&quot;&gt;proxy&lt;/span&gt;&lt;span style=&quot;color: #f07178&quot;&gt;(&lt;/span&gt;vm&lt;span style=&quot;color: #89ddff&quot;&gt;,&lt;/span&gt;&lt;span style=&quot;color: #f07178&quot;&gt;&amp;nbsp;&lt;/span&gt;&lt;span style=&quot;color: #89ddff&quot;&gt;`&lt;/span&gt;&lt;span style=&quot;color: #c3e88d&quot;&gt;_data&lt;/span&gt;&lt;span style=&quot;color: #89ddff&quot;&gt;`&lt;/span&gt;&lt;span style=&quot;color: #89ddff&quot;&gt;,&lt;/span&gt;&lt;span style=&quot;color: #f07178&quot;&gt;&amp;nbsp;&lt;/span&gt;key&lt;span style=&quot;color: #f07178&quot;&gt;)&lt;/span&gt;&lt;/div&gt;&lt;/div&gt;" style="text;html=1;align=center;verticalAlign=middle;resizable=0;points=[];autosize=1;" parent="1" vertex="1">
          <mxGeometry x="665" y="-1140" width="220" height="40" as="geometry" />
        </mxCell>
        <mxCell id="Anq4O1ZWj0-ePRSyiXMI-47" value="&lt;div style=&quot;color: rgb(238 , 255 , 255) ; background-color: rgb(38 , 50 , 56) ; font-family: &amp;#34;consolas&amp;#34; , &amp;#34;courier new&amp;#34; , monospace ; font-size: 14px ; line-height: 19px ; white-space: pre&quot;&gt;&lt;div style=&quot;font-family: &amp;#34;consolas&amp;#34; , &amp;#34;courier new&amp;#34; , monospace ; line-height: 19px&quot;&gt;&lt;div style=&quot;font-family: &amp;#34;consolas&amp;#34; , &amp;#34;courier new&amp;#34; , monospace ; line-height: 19px&quot;&gt;&lt;div style=&quot;font-family: &amp;#34;consolas&amp;#34; , &amp;#34;courier new&amp;#34; , monospace ; line-height: 19px&quot;&gt;&lt;div&gt;&lt;span style=&quot;color: rgb(130 , 170 , 255)&quot;&gt;observe&lt;/span&gt;&lt;span style=&quot;color: rgb(240 , 113 , 120)&quot;&gt;(&lt;/span&gt;data&lt;span style=&quot;color: rgb(240 , 113 , 120)&quot;&gt;)&lt;/span&gt;&lt;br&gt;&lt;/div&gt;&lt;/div&gt;&lt;/div&gt;&lt;/div&gt;&lt;/div&gt;" style="text;html=1;align=center;verticalAlign=middle;resizable=0;points=[];autosize=1;" parent="1" vertex="1">
          <mxGeometry x="715" y="-1180" width="120" height="20" as="geometry" />
        </mxCell>
        <mxCell id="Anq4O1ZWj0-ePRSyiXMI-53" value="" style="endArrow=classic;html=1;exitX=0.5;exitY=0;exitDx=0;exitDy=0;entryX=0.557;entryY=1;entryDx=0;entryDy=0;entryPerimeter=0;" parent="1" source="6u7h2ixZPunD_qiW9e1f-15" target="Anq4O1ZWj0-ePRSyiXMI-42" edge="1">
          <mxGeometry width="50" height="50" relative="1" as="geometry">
            <mxPoint x="810" y="-1040" as="sourcePoint" />
            <mxPoint x="860" y="-1090" as="targetPoint" />
          </mxGeometry>
        </mxCell>
        <mxCell id="Anq4O1ZWj0-ePRSyiXMI-59" value="" style="edgeStyle=orthogonalEdgeStyle;rounded=0;orthogonalLoop=1;jettySize=auto;html=1;entryX=0.412;entryY=0.05;entryDx=0;entryDy=0;entryPerimeter=0;" parent="1" source="Anq4O1ZWj0-ePRSyiXMI-54" target="Anq4O1ZWj0-ePRSyiXMI-74" edge="1">
          <mxGeometry relative="1" as="geometry">
            <mxPoint x="997.5999999999999" y="-2004" as="targetPoint" />
          </mxGeometry>
        </mxCell>
        <mxCell id="Anq4O1ZWj0-ePRSyiXMI-54" value="&lt;div style=&quot;color: rgb(238 , 255 , 255) ; background-color: rgb(38 , 50 , 56) ; font-family: &amp;#34;consolas&amp;#34; , &amp;#34;courier new&amp;#34; , monospace ; font-size: 14px ; line-height: 19px ; white-space: pre&quot;&gt;&lt;span style=&quot;color: #82aaff&quot;&gt;observe&lt;/span&gt;&lt;/div&gt;" style="rounded=1;whiteSpace=wrap;html=1;arcSize=33;" parent="1" vertex="1">
          <mxGeometry x="937.5" y="-2095" width="120" height="60" as="geometry" />
        </mxCell>
        <mxCell id="Anq4O1ZWj0-ePRSyiXMI-70" value="&lt;div style=&quot;color: rgb(238 , 255 , 255) ; background-color: rgb(38 , 50 , 56) ; font-family: &amp;#34;consolas&amp;#34; , &amp;#34;courier new&amp;#34; , monospace ; font-size: 14px ; line-height: 19px ; white-space: pre&quot;&gt;asRootData &amp;amp;&amp;amp; ob&lt;span style=&quot;color: #89ddff&quot;&gt;.&lt;/span&gt;vmCount&lt;span style=&quot;color: #89ddff&quot;&gt;++&lt;/span&gt;&lt;/div&gt;" style="text;html=1;align=center;verticalAlign=middle;resizable=0;points=[];autosize=1;" parent="1" vertex="1">
          <mxGeometry x="890" y="-1945" width="220" height="20" as="geometry" />
        </mxCell>
        <mxCell id="Anq4O1ZWj0-ePRSyiXMI-73" value="" style="endArrow=classic;html=1;exitX=0.419;exitY=1.05;exitDx=0;exitDy=0;entryX=0.502;entryY=-0.067;entryDx=0;entryDy=0;entryPerimeter=0;exitPerimeter=0;" parent="1" source="Anq4O1ZWj0-ePRSyiXMI-74" target="Anq4O1ZWj0-ePRSyiXMI-70" edge="1">
          <mxGeometry width="50" height="50" relative="1" as="geometry">
            <mxPoint x="997.5" y="-1880" as="sourcePoint" />
            <mxPoint x="1040" y="-1815" as="targetPoint" />
          </mxGeometry>
        </mxCell>
        <mxCell id="Anq4O1ZWj0-ePRSyiXMI-74" value="&lt;div style=&quot;color: rgb(238 , 255 , 255) ; background-color: rgb(38 , 50 , 56) ; font-family: &amp;#34;consolas&amp;#34; , &amp;#34;courier new&amp;#34; , monospace ; font-size: 14px ; line-height: 19px ; white-space: pre&quot;&gt;ob&lt;span style=&quot;color: #f07178&quot;&gt;&amp;nbsp;&lt;/span&gt;&lt;span style=&quot;color: #89ddff&quot;&gt;=&lt;/span&gt;&lt;span style=&quot;color: #f07178&quot;&gt;&amp;nbsp;&lt;/span&gt;&lt;span style=&quot;font-family: &amp;#34;consolas&amp;#34; , &amp;#34;courier new&amp;#34; , monospace&quot;&gt;__ob__&lt;/span&gt;&lt;span style=&quot;color: rgb(240 , 113 , 120)&quot;&gt;||&lt;/span&gt;&lt;span style=&quot;color: rgb(137 , 221 , 255)&quot;&gt;new&lt;/span&gt;&lt;span style=&quot;color: rgb(240 , 113 , 120)&quot;&gt;&amp;nbsp;&lt;/span&gt;&lt;span style=&quot;color: rgb(255 , 203 , 107)&quot;&gt;Observer&lt;/span&gt;&lt;span style=&quot;color: rgb(240 , 113 , 120)&quot;&gt;(&lt;/span&gt;value&lt;span style=&quot;color: rgb(240 , 113 , 120)&quot;&gt;)&lt;/span&gt;&lt;/div&gt;" style="text;html=1;align=center;verticalAlign=middle;resizable=0;points=[];autosize=1;" parent="1" vertex="1">
          <mxGeometry x="890" y="-1995" width="260" height="20" as="geometry" />
        </mxCell>
        <mxCell id="Anq4O1ZWj0-ePRSyiXMI-75" value="&lt;div style=&quot;color: rgb(238 , 255 , 255) ; background-color: rgb(38 , 50 , 56) ; font-family: &amp;#34;consolas&amp;#34; , &amp;#34;courier new&amp;#34; , monospace ; font-size: 14px ; line-height: 19px ; white-space: pre&quot;&gt;&lt;span style=&quot;color: #ffcb6b&quot;&gt;Observer&lt;/span&gt;&lt;/div&gt;" style="rounded=1;whiteSpace=wrap;html=1;" parent="1" vertex="1">
          <mxGeometry x="1310" y="-2270" width="120" height="60" as="geometry" />
        </mxCell>
        <mxCell id="Anq4O1ZWj0-ePRSyiXMI-76" value="" style="endArrow=none;html=1;entryX=0.371;entryY=1.056;entryDx=0;entryDy=0;entryPerimeter=0;exitX=0.471;exitY=0;exitDx=0;exitDy=0;exitPerimeter=0;" parent="1" source="Anq4O1ZWj0-ePRSyiXMI-77" target="Anq4O1ZWj0-ePRSyiXMI-75" edge="1">
          <mxGeometry width="50" height="50" relative="1" as="geometry">
            <mxPoint x="1290" y="-2170" as="sourcePoint" />
            <mxPoint x="1330" y="-2180" as="targetPoint" />
          </mxGeometry>
        </mxCell>
        <mxCell id="Anq4O1ZWj0-ePRSyiXMI-77" value="&lt;div style=&quot;color: rgb(238 , 255 , 255) ; background-color: rgb(38 , 50 , 56) ; font-family: &amp;#34;consolas&amp;#34; , &amp;#34;courier new&amp;#34; , monospace ; font-size: 14px ; line-height: 19px ; white-space: pre&quot;&gt;&lt;span style=&quot;color: #89ddff&quot;&gt;this.&lt;/span&gt;value,&lt;span style=&quot;color: rgb(137 , 221 , 255)&quot;&gt;this.&lt;/span&gt;dep&lt;span style=&quot;color: rgb(240 , 113 , 120)&quot;&gt;&amp;nbsp;&lt;/span&gt;&lt;span style=&quot;color: rgb(137 , 221 , 255)&quot;&gt;=&lt;/span&gt;&lt;span style=&quot;color: rgb(240 , 113 , 120)&quot;&gt;&amp;nbsp;&lt;/span&gt;&lt;span style=&quot;color: rgb(137 , 221 , 255)&quot;&gt;new&lt;/span&gt;&lt;span style=&quot;color: rgb(240 , 113 , 120)&quot;&gt;&amp;nbsp;&lt;/span&gt;&lt;span style=&quot;color: rgb(255 , 203 , 107)&quot;&gt;Dep&lt;/span&gt;&lt;span style=&quot;color: rgb(240 , 113 , 120)&quot;&gt;(),&lt;/span&gt;&lt;span style=&quot;color: rgb(137 , 221 , 255)&quot;&gt;this.&lt;/span&gt;vmCount&lt;/div&gt;" style="text;html=1;align=center;verticalAlign=middle;resizable=0;points=[];autosize=1;" parent="1" vertex="1">
          <mxGeometry x="1140" y="-2180" width="350" height="20" as="geometry" />
        </mxCell>
        <mxCell id="Anq4O1ZWj0-ePRSyiXMI-78" value="&lt;div style=&quot;color: rgb(238 , 255 , 255) ; background-color: rgb(38 , 50 , 56) ; font-family: &amp;#34;consolas&amp;#34; , &amp;#34;courier new&amp;#34; , monospace ; font-size: 14px ; line-height: 19px ; white-space: pre&quot;&gt;&lt;span style=&quot;color: #c3e88d&quot;&gt;value.__ob__ = this&lt;/span&gt;&lt;/div&gt;" style="text;html=1;align=center;verticalAlign=middle;resizable=0;points=[];autosize=1;" parent="1" vertex="1">
          <mxGeometry x="1350" y="-2140" width="160" height="20" as="geometry" />
        </mxCell>
        <mxCell id="Anq4O1ZWj0-ePRSyiXMI-79" value="" style="endArrow=none;html=1;entryX=0.574;entryY=1.043;entryDx=0;entryDy=0;entryPerimeter=0;exitX=0.375;exitY=0;exitDx=0;exitDy=0;exitPerimeter=0;" parent="1" source="Anq4O1ZWj0-ePRSyiXMI-78" target="Anq4O1ZWj0-ePRSyiXMI-75" edge="1">
          <mxGeometry width="50" height="50" relative="1" as="geometry">
            <mxPoint x="1330" y="-2030" as="sourcePoint" />
            <mxPoint x="1380" y="-2080" as="targetPoint" />
          </mxGeometry>
        </mxCell>
        <mxCell id="Anq4O1ZWj0-ePRSyiXMI-81" value="" style="endArrow=classic;html=1;exitX=0.5;exitY=1;exitDx=0;exitDy=0;entryX=0.423;entryY=-0.076;entryDx=0;entryDy=0;entryPerimeter=0;" parent="1" source="Anq4O1ZWj0-ePRSyiXMI-75" target="Anq4O1ZWj0-ePRSyiXMI-82" edge="1">
          <mxGeometry width="50" height="50" relative="1" as="geometry">
            <mxPoint x="1230" y="-2075" as="sourcePoint" />
            <mxPoint x="1369.9999999999998" y="-2095" as="targetPoint" />
          </mxGeometry>
        </mxCell>
        <mxCell id="Anq4O1ZWj0-ePRSyiXMI-82" value="&lt;span style=&quot;color: rgb(130 , 170 , 255) ; font-family: &amp;#34;consolas&amp;#34; , &amp;#34;courier new&amp;#34; , monospace ; font-size: 14px ; white-space: pre ; background-color: rgb(38 , 50 , 56)&quot;&gt;defineReactive(value.keys)&lt;/span&gt;" style="text;html=1;align=center;verticalAlign=middle;resizable=0;points=[];autosize=1;" parent="1" vertex="1">
          <mxGeometry x="1277" y="-2080" width="220" height="20" as="geometry" />
        </mxCell>
        <mxCell id="Anq4O1ZWj0-ePRSyiXMI-83" value="&lt;div style=&quot;color: rgb(238 , 255 , 255) ; background-color: rgb(38 , 50 , 56) ; font-family: &amp;#34;consolas&amp;#34; , &amp;#34;courier new&amp;#34; , monospace ; font-size: 14px ; line-height: 19px ; white-space: pre&quot;&gt;&lt;div style=&quot;font-family: &amp;#34;consolas&amp;#34; , &amp;#34;courier new&amp;#34; , monospace ; line-height: 19px&quot;&gt;childOb&lt;span style=&quot;color: #f07178&quot;&gt;&amp;nbsp;&lt;/span&gt;&lt;span style=&quot;color: #89ddff&quot;&gt;=&lt;/span&gt;&lt;span style=&quot;color: #f07178&quot;&gt;&amp;nbsp;&lt;/span&gt;&lt;span style=&quot;color: #89ddff&quot;&gt;!&lt;/span&gt;shallow&lt;span style=&quot;color: #f07178&quot;&gt;&amp;nbsp;&lt;/span&gt;&lt;span style=&quot;color: #89ddff&quot;&gt;&amp;amp;&amp;amp;&lt;/span&gt;&lt;span style=&quot;color: #f07178&quot;&gt;&amp;nbsp;&lt;/span&gt;&lt;span style=&quot;color: #82aaff&quot;&gt;observe&lt;/span&gt;&lt;span style=&quot;color: #f07178&quot;&gt;(&lt;/span&gt;val&lt;span style=&quot;color: #f07178&quot;&gt;)&lt;/span&gt;&lt;/div&gt;&lt;/div&gt;" style="text;html=1;align=center;verticalAlign=middle;resizable=0;points=[];autosize=1;" parent="1" vertex="1">
          <mxGeometry x="900" y="-1600" width="280" height="20" as="geometry" />
        </mxCell>
        <mxCell id="Anq4O1ZWj0-ePRSyiXMI-84" value="" style="endArrow=classic;html=1;exitX=0.457;exitY=1.055;exitDx=0;exitDy=0;exitPerimeter=0;entryX=0.485;entryY=0;entryDx=0;entryDy=0;entryPerimeter=0;" parent="1" source="Anq4O1ZWj0-ePRSyiXMI-83" target="Anq4O1ZWj0-ePRSyiXMI-27" edge="1">
          <mxGeometry width="50" height="50" relative="1" as="geometry">
            <mxPoint x="1022.5" y="-1520" as="sourcePoint" />
            <mxPoint x="1072.5" y="-1570" as="targetPoint" />
          </mxGeometry>
        </mxCell>
        <mxCell id="Anq4O1ZWj0-ePRSyiXMI-85" value="&lt;div style=&quot;color: rgb(238 , 255 , 255) ; background-color: rgb(38 , 50 , 56) ; font-family: &amp;#34;consolas&amp;#34; , &amp;#34;courier new&amp;#34; , monospace ; font-size: 14px ; line-height: 19px ; white-space: pre&quot;&gt;&lt;span style=&quot;color: #82aaff&quot;&gt;$set&lt;/span&gt;&lt;/div&gt;" style="rounded=1;whiteSpace=wrap;html=1;" parent="1" vertex="1">
          <mxGeometry x="595" y="-2415.5" width="120" height="60" as="geometry" />
        </mxCell>
        <mxCell id="Anq4O1ZWj0-ePRSyiXMI-86" value="" style="endArrow=none;html=1;entryX=0.25;entryY=1;entryDx=0;entryDy=0;exitX=0.503;exitY=-0.097;exitDx=0;exitDy=0;exitPerimeter=0;" parent="1" source="Anq4O1ZWj0-ePRSyiXMI-87" target="Anq4O1ZWj0-ePRSyiXMI-85" edge="1">
          <mxGeometry width="50" height="50" relative="1" as="geometry">
            <mxPoint x="565" y="-2315.5" as="sourcePoint" />
            <mxPoint x="575" y="-2345.5" as="targetPoint" />
          </mxGeometry>
        </mxCell>
        <mxCell id="Anq4O1ZWj0-ePRSyiXMI-87" value="&lt;div style=&quot;color: rgb(238 , 255 , 255) ; background-color: rgb(38 , 50 , 56) ; font-family: &amp;#34;consolas&amp;#34; , &amp;#34;courier new&amp;#34; , monospace ; font-size: 14px ; line-height: 19px ; white-space: pre&quot;&gt;target&lt;span style=&quot;color: #f07178&quot;&gt;[&lt;/span&gt;key&lt;span style=&quot;color: #f07178&quot;&gt;]&amp;nbsp;=&amp;nbsp;val&lt;/span&gt;&lt;/div&gt;" style="text;html=1;align=center;verticalAlign=middle;resizable=0;points=[];autosize=1;" parent="1" vertex="1">
          <mxGeometry x="472.5" y="-2325.5" width="150" height="20" as="geometry" />
        </mxCell>
        <mxCell id="Anq4O1ZWj0-ePRSyiXMI-88" value="&lt;div style=&quot;color: rgb(238 , 255 , 255) ; background-color: rgb(38 , 50 , 56) ; font-family: &amp;#34;consolas&amp;#34; , &amp;#34;courier new&amp;#34; , monospace ; font-size: 14px ; line-height: 19px ; white-space: pre&quot;&gt;&lt;span style=&quot;color: #f07178&quot;&gt;ob&amp;nbsp;=&amp;nbsp;(target&lt;/span&gt;&lt;span style=&quot;color: #89ddff&quot;&gt;:&lt;/span&gt;&amp;nbsp;any)&lt;span style=&quot;color: #89ddff&quot;&gt;.&lt;/span&gt;__ob__&lt;/div&gt;" style="text;html=1;align=center;verticalAlign=middle;resizable=0;points=[];autosize=1;" parent="1" vertex="1">
          <mxGeometry x="635" y="-2325.5" width="210" height="20" as="geometry" />
        </mxCell>
        <mxCell id="Anq4O1ZWj0-ePRSyiXMI-89" value="" style="endArrow=none;html=1;exitX=0.672;exitY=1.003;exitDx=0;exitDy=0;exitPerimeter=0;entryX=0.502;entryY=-0.112;entryDx=0;entryDy=0;entryPerimeter=0;" parent="1" source="Anq4O1ZWj0-ePRSyiXMI-85" target="Anq4O1ZWj0-ePRSyiXMI-88" edge="1">
          <mxGeometry width="50" height="50" relative="1" as="geometry">
            <mxPoint x="775" y="-2355.5" as="sourcePoint" />
            <mxPoint x="825" y="-2405.5" as="targetPoint" />
          </mxGeometry>
        </mxCell>
        <mxCell id="Anq4O1ZWj0-ePRSyiXMI-90" value="&lt;div style=&quot;color: rgb(238 , 255 , 255) ; background-color: rgb(38 , 50 , 56) ; font-family: &amp;#34;consolas&amp;#34; , &amp;#34;courier new&amp;#34; , monospace ; font-size: 14px ; line-height: 19px ; white-space: pre&quot;&gt;&lt;span style=&quot;color: #f07178&quot;&gt;defineReactive(ob.value,&amp;nbsp;key,&amp;nbsp;val)&lt;/span&gt;&lt;/div&gt;" style="text;html=1;align=center;verticalAlign=middle;resizable=0;points=[];autosize=1;" parent="1" vertex="1">
          <mxGeometry x="605" y="-2275.5" width="280" height="20" as="geometry" />
        </mxCell>
        <mxCell id="Anq4O1ZWj0-ePRSyiXMI-91" value="" style="endArrow=none;html=1;exitX=0.502;exitY=1.06;exitDx=0;exitDy=0;exitPerimeter=0;entryX=0.489;entryY=-0.06;entryDx=0;entryDy=0;entryPerimeter=0;" parent="1" source="Anq4O1ZWj0-ePRSyiXMI-88" target="Anq4O1ZWj0-ePRSyiXMI-90" edge="1">
          <mxGeometry width="50" height="50" relative="1" as="geometry">
            <mxPoint x="665" y="-2165.5" as="sourcePoint" />
            <mxPoint x="715" y="-2215.5" as="targetPoint" />
          </mxGeometry>
        </mxCell>
        <mxCell id="Anq4O1ZWj0-ePRSyiXMI-92" value="&lt;div style=&quot;color: rgb(238 , 255 , 255) ; background-color: rgb(38 , 50 , 56) ; font-family: &amp;#34;consolas&amp;#34; , &amp;#34;courier new&amp;#34; , monospace ; font-size: 14px ; line-height: 19px ; white-space: pre&quot;&gt;&lt;span style=&quot;color: #f07178&quot;&gt;ob.dep.notify()&lt;/span&gt;&lt;/div&gt;" style="text;html=1;align=center;verticalAlign=middle;resizable=0;points=[];autosize=1;" parent="1" vertex="1">
          <mxGeometry x="680" y="-2230" width="130" height="20" as="geometry" />
        </mxCell>
        <mxCell id="Anq4O1ZWj0-ePRSyiXMI-93" value="" style="endArrow=none;html=1;entryX=0.521;entryY=1.216;entryDx=0;entryDy=0;entryPerimeter=0;exitX=0.54;exitY=0.009;exitDx=0;exitDy=0;exitPerimeter=0;" parent="1" source="Anq4O1ZWj0-ePRSyiXMI-92" target="Anq4O1ZWj0-ePRSyiXMI-90" edge="1">
          <mxGeometry width="50" height="50" relative="1" as="geometry">
            <mxPoint x="625" y="-2115.5" as="sourcePoint" />
            <mxPoint x="675" y="-2165.5" as="targetPoint" />
          </mxGeometry>
        </mxCell>
        <mxCell id="Anq4O1ZWj0-ePRSyiXMI-94" value="" style="startArrow=oval;startFill=0;startSize=7;endArrow=block;endFill=0;endSize=10;dashed=1;html=1;exitX=0.986;exitY=0.4;exitDx=0;exitDy=0;exitPerimeter=0;entryX=0;entryY=0.5;entryDx=0;entryDy=0;" parent="1" source="6u7h2ixZPunD_qiW9e1f-48" target="Anq4O1ZWj0-ePRSyiXMI-85" edge="1">
          <mxGeometry width="100" relative="1" as="geometry">
            <mxPoint x="460" y="-2190" as="sourcePoint" />
            <mxPoint x="560" y="-2190" as="targetPoint" />
          </mxGeometry>
        </mxCell>
        <mxCell id="Anq4O1ZWj0-ePRSyiXMI-95" value="&lt;div style=&quot;color: rgb(238 , 255 , 255) ; background-color: rgb(38 , 50 , 56) ; font-family: &amp;#34;consolas&amp;#34; , &amp;#34;courier new&amp;#34; , monospace ; font-size: 14px ; line-height: 19px ; white-space: pre&quot;&gt;&lt;span style=&quot;color: #f07178&quot;&gt;notify&lt;/span&gt;&amp;nbsp;&lt;span style=&quot;color: #89ddff&quot;&gt;()&lt;/span&gt;&lt;/div&gt;" style="text;html=1;align=center;verticalAlign=middle;resizable=0;points=[];autosize=1;" parent="1" vertex="1">
          <mxGeometry x="1430" y="-1900" width="80" height="20" as="geometry" />
        </mxCell>
        <mxCell id="Anq4O1ZWj0-ePRSyiXMI-97" value="" style="endArrow=none;html=1;entryX=0.674;entryY=1.014;entryDx=0;entryDy=0;exitX=0.413;exitY=-0.164;exitDx=0;exitDy=0;exitPerimeter=0;entryPerimeter=0;" parent="1" source="Anq4O1ZWj0-ePRSyiXMI-98" target="Anq4O1ZWj0-ePRSyiXMI-35" edge="1">
          <mxGeometry width="50" height="50" relative="1" as="geometry">
            <mxPoint x="1510" y="-1760" as="sourcePoint" />
            <mxPoint x="1550" y="-1790" as="targetPoint" />
          </mxGeometry>
        </mxCell>
        <mxCell id="Anq4O1ZWj0-ePRSyiXMI-98" value="&lt;div style=&quot;color: rgb(238 , 255 , 255) ; background-color: rgb(38 , 50 , 56) ; font-family: &amp;#34;consolas&amp;#34; , &amp;#34;courier new&amp;#34; , monospace ; font-size: 14px ; line-height: 19px ; white-space: pre&quot;&gt;&lt;span style=&quot;color: #c792ea&quot;&gt;static&lt;/span&gt;&amp;nbsp;&lt;span style=&quot;color: #f07178&quot;&gt;target&lt;/span&gt;&lt;/div&gt;" style="text;html=1;align=center;verticalAlign=middle;resizable=0;points=[];autosize=1;" parent="1" vertex="1">
          <mxGeometry x="1440" y="-1750" width="120" height="20" as="geometry" />
        </mxCell>
        <mxCell id="Anq4O1ZWj0-ePRSyiXMI-99" value="&lt;div style=&quot;color: rgb(238 , 255 , 255) ; background-color: rgb(38 , 50 , 56) ; font-family: &amp;#34;consolas&amp;#34; , &amp;#34;courier new&amp;#34; , monospace ; font-size: 14px ; line-height: 19px ; white-space: pre&quot;&gt;targetStack&amp;nbsp;&lt;span style=&quot;color: #89ddff&quot;&gt;=&lt;/span&gt;&amp;nbsp;[]&lt;/div&gt;" style="text;html=1;align=center;verticalAlign=middle;resizable=0;points=[];autosize=1;" parent="1" vertex="1">
          <mxGeometry x="1200" y="-1690" width="140" height="20" as="geometry" />
        </mxCell>
        <mxCell id="Anq4O1ZWj0-ePRSyiXMI-100" value="" style="endArrow=none;html=1;entryX=0.5;entryY=1;entryDx=0;entryDy=0;exitX=0.441;exitY=-0.086;exitDx=0;exitDy=0;exitPerimeter=0;" parent="1" source="Anq4O1ZWj0-ePRSyiXMI-99" target="Anq4O1ZWj0-ePRSyiXMI-35" edge="1">
          <mxGeometry width="50" height="50" relative="1" as="geometry">
            <mxPoint x="1290" y="-1620" as="sourcePoint" />
            <mxPoint x="1340" y="-1670" as="targetPoint" />
          </mxGeometry>
        </mxCell>
        <mxCell id="Anq4O1ZWj0-ePRSyiXMI-101" value="&lt;div style=&quot;color: rgb(238 , 255 , 255) ; background-color: rgb(38 , 50 , 56) ; font-family: &amp;#34;consolas&amp;#34; , &amp;#34;courier new&amp;#34; , monospace ; font-size: 14px ; line-height: 19px ; white-space: pre&quot;&gt;&lt;span style=&quot;color: #89ddff&quot;&gt;subs[i].&lt;/span&gt;&lt;span style=&quot;color: #82aaff&quot;&gt;update&lt;/span&gt;&lt;span style=&quot;color: #f07178&quot;&gt;()&lt;/span&gt;&lt;/div&gt;" style="text;html=1;align=center;verticalAlign=middle;resizable=0;points=[];autosize=1;" parent="1" vertex="1">
          <mxGeometry x="1514" y="-1945" width="140" height="20" as="geometry" />
        </mxCell>
        <mxCell id="jvqDE52MlW_Ubwd3E0OV-4" value="&lt;div style=&quot;color: rgb(238 , 255 , 255) ; background-color: rgb(38 , 50 , 56) ; font-family: &amp;#34;consolas&amp;#34; , &amp;#34;courier new&amp;#34; , monospace ; font-size: 14px ; line-height: 19px ; white-space: pre&quot;&gt;&lt;span style=&quot;color: #c3e88d&quot;&gt;hook.beforeMount&lt;/span&gt;&lt;/div&gt;" style="text;html=1;align=center;verticalAlign=middle;resizable=0;points=[];autosize=1;" vertex="1" parent="1">
          <mxGeometry x="340" y="-700" width="140" height="20" as="geometry" />
        </mxCell>
        <mxCell id="jvqDE52MlW_Ubwd3E0OV-5" value="&lt;div style=&quot;color: rgb(238 , 255 , 255) ; background-color: rgb(38 , 50 , 56) ; font-family: &amp;#34;consolas&amp;#34; , &amp;#34;courier new&amp;#34; , monospace ; font-size: 14px ; line-height: 19px ; white-space: pre&quot;&gt;&lt;span style=&quot;color: #89ddff&quot;&gt;new&lt;/span&gt;&lt;span style=&quot;color: #f07178&quot;&gt;&amp;nbsp;&lt;/span&gt;&lt;span style=&quot;color: #ffcb6b&quot;&gt;Watcher&lt;/span&gt;&lt;/div&gt;" style="text;html=1;align=center;verticalAlign=middle;resizable=0;points=[];autosize=1;" vertex="1" parent="1">
          <mxGeometry x="280" y="-620" width="100" height="20" as="geometry" />
        </mxCell>
        <mxCell id="jvqDE52MlW_Ubwd3E0OV-8" value="" style="endArrow=classic;html=1;exitX=0.5;exitY=1;exitDx=0;exitDy=0;entryX=0.496;entryY=-0.05;entryDx=0;entryDy=0;entryPerimeter=0;" edge="1" parent="1" source="6u7h2ixZPunD_qiW9e1f-33" target="jvqDE52MlW_Ubwd3E0OV-5">
          <mxGeometry width="50" height="50" relative="1" as="geometry">
            <mxPoint x="340" y="-490" as="sourcePoint" />
            <mxPoint x="390" y="-540" as="targetPoint" />
          </mxGeometry>
        </mxCell>
        <mxCell id="jvqDE52MlW_Ubwd3E0OV-9" value="&lt;span style=&quot;color: rgb(195 , 232 , 141) ; font-family: &amp;#34;consolas&amp;#34; , &amp;#34;courier new&amp;#34; , monospace ; font-size: 14px ; white-space: pre ; background-color: rgb(38 , 50 , 56)&quot;&gt;hook.&lt;/span&gt;&lt;span style=&quot;color: rgb(195 , 232 , 141) ; background-color: rgb(38 , 50 , 56) ; font-family: &amp;#34;consolas&amp;#34; , &amp;#34;courier new&amp;#34; , monospace ; font-size: 14px ; white-space: pre&quot;&gt;mounted&lt;/span&gt;" style="text;html=1;align=center;verticalAlign=middle;resizable=0;points=[];autosize=1;" vertex="1" parent="1">
          <mxGeometry x="275" y="-560" width="110" height="20" as="geometry" />
        </mxCell>
        <mxCell id="jvqDE52MlW_Ubwd3E0OV-10" value="" style="endArrow=classic;html=1;exitX=0.486;exitY=1.145;exitDx=0;exitDy=0;exitPerimeter=0;entryX=0.481;entryY=-0.131;entryDx=0;entryDy=0;entryPerimeter=0;" edge="1" parent="1" source="jvqDE52MlW_Ubwd3E0OV-5" target="jvqDE52MlW_Ubwd3E0OV-9">
          <mxGeometry width="50" height="50" relative="1" as="geometry">
            <mxPoint x="390" y="-430" as="sourcePoint" />
            <mxPoint x="440" y="-480" as="targetPoint" />
          </mxGeometry>
        </mxCell>
        <mxCell id="jvqDE52MlW_Ubwd3E0OV-11" value="&lt;div style=&quot;color: rgb(238 , 255 , 255) ; background-color: rgb(38 , 50 , 56) ; font-family: &amp;#34;consolas&amp;#34; , &amp;#34;courier new&amp;#34; , monospace ; font-size: 14px ; line-height: 19px ; white-space: pre&quot;&gt;&lt;br&gt;&lt;/div&gt;" style="text;html=1;align=center;verticalAlign=middle;resizable=0;points=[];autosize=1;" vertex="1" parent="1">
          <mxGeometry x="610" y="-640" width="20" height="20" as="geometry" />
        </mxCell>
        <mxCell id="jvqDE52MlW_Ubwd3E0OV-12" value="&lt;div style=&quot;color: rgb(238 , 255 , 255) ; background-color: rgb(38 , 50 , 56) ; font-family: &amp;#34;consolas&amp;#34; , &amp;#34;courier new&amp;#34; , monospace ; font-size: 14px ; line-height: 19px ; white-space: pre&quot;&gt;&lt;span style=&quot;color: #ffcb6b&quot;&gt;Watcher&lt;/span&gt;&lt;/div&gt;" style="rounded=1;whiteSpace=wrap;html=1;" vertex="1" parent="1">
          <mxGeometry x="610" y="-640" width="120" height="60" as="geometry" />
        </mxCell>
        <mxCell id="jvqDE52MlW_Ubwd3E0OV-13" value="&lt;div style=&quot;color: rgb(238 , 255 , 255) ; background-color: rgb(38 , 50 , 56) ; font-family: &amp;#34;consolas&amp;#34; , &amp;#34;courier new&amp;#34; , monospace ; font-size: 14px ; line-height: 19px ; white-space: pre&quot;&gt;&lt;span style=&quot;color: #89ddff&quot;&gt;this.&lt;/span&gt;vm,&lt;/div&gt;&lt;div style=&quot;color: rgb(238 , 255 , 255) ; background-color: rgb(38 , 50 , 56) ; font-family: &amp;#34;consolas&amp;#34; , &amp;#34;courier new&amp;#34; , monospace ; font-size: 14px ; line-height: 19px ; white-space: pre&quot;&gt;&lt;span style=&quot;font-family: &amp;#34;consolas&amp;#34; , &amp;#34;courier new&amp;#34; , monospace&quot;&gt;vm&lt;/span&gt;&lt;span style=&quot;font-family: &amp;#34;consolas&amp;#34; , &amp;#34;courier new&amp;#34; , monospace ; color: rgb(137 , 221 , 255)&quot;&gt;.&lt;/span&gt;&lt;span style=&quot;font-family: &amp;#34;consolas&amp;#34; , &amp;#34;courier new&amp;#34; , monospace&quot;&gt;_watcher&lt;/span&gt;&lt;span style=&quot;font-family: &amp;#34;consolas&amp;#34; , &amp;#34;courier new&amp;#34; , monospace ; color: rgb(240 , 113 , 120)&quot;&gt;&amp;nbsp;&lt;/span&gt;&lt;span style=&quot;font-family: &amp;#34;consolas&amp;#34; , &amp;#34;courier new&amp;#34; , monospace ; color: rgb(137 , 221 , 255)&quot;&gt;=&lt;/span&gt;&lt;span style=&quot;font-family: &amp;#34;consolas&amp;#34; , &amp;#34;courier new&amp;#34; , monospace ; color: rgb(240 , 113 , 120)&quot;&gt;&amp;nbsp;&lt;/span&gt;&lt;span style=&quot;font-family: &amp;#34;consolas&amp;#34; , &amp;#34;courier new&amp;#34; , monospace ; color: rgb(137 , 221 , 255)&quot;&gt;this,&lt;/span&gt;&lt;/div&gt;&lt;div style=&quot;color: rgb(238 , 255 , 255) ; background-color: rgb(38 , 50 , 56) ; font-family: &amp;#34;consolas&amp;#34; , &amp;#34;courier new&amp;#34; , monospace ; font-size: 14px ; line-height: 19px ; white-space: pre&quot;&gt;&lt;div style=&quot;font-family: &amp;#34;consolas&amp;#34; , &amp;#34;courier new&amp;#34; , monospace ; line-height: 19px&quot;&gt;&lt;span style=&quot;color: #89ddff&quot;&gt;this.&lt;/span&gt;before=hook.beforeUpdate,&lt;/div&gt;&lt;div style=&quot;font-family: &amp;#34;consolas&amp;#34; , &amp;#34;courier new&amp;#34; , monospace ; line-height: 19px&quot;&gt;&lt;div style=&quot;line-height: 19px&quot;&gt;&lt;span style=&quot;color: #89ddff&quot;&gt;this.&lt;/span&gt;deep,&lt;span style=&quot;color: rgb(137 , 221 , 255)&quot;&gt;this.&lt;/span&gt;user,&lt;span style=&quot;color: rgb(137 , 221 , 255)&quot;&gt;this.&lt;/span&gt;lazy,&lt;span style=&quot;color: rgb(137 , 221 , 255)&quot;&gt;this.&lt;/span&gt;sync&lt;/div&gt;&lt;div style=&quot;line-height: 19px&quot;&gt;&lt;div style=&quot;font-family: &amp;#34;consolas&amp;#34; , &amp;#34;courier new&amp;#34; , monospace ; line-height: 19px&quot;&gt;&lt;span style=&quot;color: #89ddff&quot;&gt;this.&lt;/span&gt;cb,&lt;span style=&quot;color: rgb(137 , 221 , 255)&quot;&gt;this.&lt;/span&gt;id,&lt;span style=&quot;color: rgb(137 , 221 , 255)&quot;&gt;this.&lt;/span&gt;active,&lt;span style=&quot;color: rgb(137 , 221 , 255)&quot;&gt;this.&lt;/span&gt;dirty,&lt;/div&gt;&lt;div style=&quot;font-family: &amp;#34;consolas&amp;#34; , &amp;#34;courier new&amp;#34; , monospace ; line-height: 19px&quot;&gt;&lt;div style=&quot;line-height: 19px&quot;&gt;&lt;span style=&quot;color: #89ddff&quot;&gt;this.&lt;/span&gt;deps,&lt;span style=&quot;color: rgb(137 , 221 , 255)&quot;&gt;this.&lt;/span&gt;newDeps,&lt;span style=&quot;color: rgb(137 , 221 , 255)&quot;&gt;this.&lt;/span&gt;depIds,&lt;/div&gt;&lt;div style=&quot;line-height: 19px&quot;&gt;&lt;div style=&quot;line-height: 19px&quot;&gt;&lt;span style=&quot;color: #89ddff&quot;&gt;this.&lt;/span&gt;newDepIds,&lt;span style=&quot;color: rgb(137 , 221 , 255)&quot;&gt;this.&lt;/span&gt;expression,&lt;span style=&quot;color: rgb(137 , 221 , 255)&quot;&gt;this.&lt;/span&gt;getter,&lt;span style=&quot;color: rgb(137 , 221 , 255)&quot;&gt;this.&lt;/span&gt;value&lt;/div&gt;&lt;/div&gt;&lt;/div&gt;&lt;/div&gt;&lt;/div&gt;&lt;/div&gt;" style="text;html=1;align=center;verticalAlign=middle;resizable=0;points=[];autosize=1;" vertex="1" parent="1">
          <mxGeometry x="460" y="-540" width="420" height="140" as="geometry" />
        </mxCell>
        <mxCell id="jvqDE52MlW_Ubwd3E0OV-14" value="" style="endArrow=classic;html=1;exitX=0.5;exitY=1;exitDx=0;exitDy=0;entryX=0.502;entryY=-0.029;entryDx=0;entryDy=0;entryPerimeter=0;" edge="1" parent="1" source="jvqDE52MlW_Ubwd3E0OV-12" target="jvqDE52MlW_Ubwd3E0OV-13">
          <mxGeometry width="50" height="50" relative="1" as="geometry">
            <mxPoint x="585" y="-290" as="sourcePoint" />
            <mxPoint x="635" y="-340" as="targetPoint" />
          </mxGeometry>
        </mxCell>
        <mxCell id="jvqDE52MlW_Ubwd3E0OV-15" value="&lt;div style=&quot;color: rgb(238 , 255 , 255) ; background-color: rgb(38 , 50 , 56) ; font-family: &amp;#34;consolas&amp;#34; , &amp;#34;courier new&amp;#34; , monospace ; font-size: 14px ; line-height: 19px ; white-space: pre&quot;&gt;&lt;span style=&quot;color: #f07178&quot;&gt;get&lt;/span&gt;&amp;nbsp;&lt;span style=&quot;color: #89ddff&quot;&gt;()&lt;/span&gt;&lt;/div&gt;" style="text;html=1;align=center;verticalAlign=middle;resizable=0;points=[];autosize=1;" vertex="1" parent="1">
          <mxGeometry x="640" y="-350" width="60" height="20" as="geometry" />
        </mxCell>
        <mxCell id="jvqDE52MlW_Ubwd3E0OV-16" value="" style="endArrow=classic;html=1;exitX=0.512;exitY=1.021;exitDx=0;exitDy=0;exitPerimeter=0;entryX=0.6;entryY=0.1;entryDx=0;entryDy=0;entryPerimeter=0;" edge="1" parent="1" source="jvqDE52MlW_Ubwd3E0OV-13" target="jvqDE52MlW_Ubwd3E0OV-15">
          <mxGeometry width="50" height="50" relative="1" as="geometry">
            <mxPoint x="555" y="-310" as="sourcePoint" />
            <mxPoint x="605" y="-360" as="targetPoint" />
          </mxGeometry>
        </mxCell>
        <mxCell id="jvqDE52MlW_Ubwd3E0OV-17" value="&lt;div style=&quot;color: rgb(238 , 255 , 255) ; background-color: rgb(38 , 50 , 56) ; font-family: &amp;#34;consolas&amp;#34; , &amp;#34;courier new&amp;#34; , monospace ; font-size: 14px ; line-height: 19px ; white-space: pre&quot;&gt;&lt;span style=&quot;color: #82aaff&quot;&gt;pushTarget()&lt;/span&gt;&lt;/div&gt;" style="text;html=1;align=center;verticalAlign=middle;resizable=0;points=[];autosize=1;" vertex="1" parent="1">
          <mxGeometry x="1320" y="-1630" width="110" height="20" as="geometry" />
        </mxCell>
        <mxCell id="jvqDE52MlW_Ubwd3E0OV-20" value="" style="endArrow=classic;html=1;entryX=0.657;entryY=1.092;entryDx=0;entryDy=0;entryPerimeter=0;exitX=0.367;exitY=-0.075;exitDx=0;exitDy=0;exitPerimeter=0;" edge="1" parent="1" source="jvqDE52MlW_Ubwd3E0OV-17" target="Anq4O1ZWj0-ePRSyiXMI-99">
          <mxGeometry width="50" height="50" relative="1" as="geometry">
            <mxPoint x="1280" y="-1560" as="sourcePoint" />
            <mxPoint x="1330" y="-1610" as="targetPoint" />
          </mxGeometry>
        </mxCell>
        <mxCell id="jvqDE52MlW_Ubwd3E0OV-21" value="" style="endArrow=classic;html=1;exitX=0.912;exitY=-0.117;exitDx=0;exitDy=0;exitPerimeter=0;entryX=0.267;entryY=1.217;entryDx=0;entryDy=0;entryPerimeter=0;" edge="1" parent="1" source="jvqDE52MlW_Ubwd3E0OV-17" target="Anq4O1ZWj0-ePRSyiXMI-98">
          <mxGeometry width="50" height="50" relative="1" as="geometry">
            <mxPoint x="1350" y="-1550" as="sourcePoint" />
            <mxPoint x="1400" y="-1600" as="targetPoint" />
          </mxGeometry>
        </mxCell>
        <mxCell id="jvqDE52MlW_Ubwd3E0OV-22" value="" style="endArrow=classic;html=1;exitX=1.01;exitY=0.55;exitDx=0;exitDy=0;exitPerimeter=0;" edge="1" parent="1" source="jvqDE52MlW_Ubwd3E0OV-15" target="jvqDE52MlW_Ubwd3E0OV-24">
          <mxGeometry width="50" height="50" relative="1" as="geometry">
            <mxPoint x="735" y="-290" as="sourcePoint" />
            <mxPoint x="785" y="-340" as="targetPoint" />
          </mxGeometry>
        </mxCell>
        <mxCell id="jvqDE52MlW_Ubwd3E0OV-24" value="&lt;div style=&quot;color: rgb(238 , 255 , 255) ; background-color: rgb(38 , 50 , 56) ; font-family: &amp;#34;consolas&amp;#34; , &amp;#34;courier new&amp;#34; , monospace ; font-size: 14px ; line-height: 19px ; white-space: pre&quot;&gt;&lt;span style=&quot;color: #82aaff&quot;&gt;Dep.pushTarget(this)&lt;/span&gt;&lt;/div&gt;" style="text;html=1;align=center;verticalAlign=middle;resizable=0;points=[];autosize=1;" vertex="1" parent="1">
          <mxGeometry x="755" y="-350" width="170" height="20" as="geometry" />
        </mxCell>
        <mxCell id="jvqDE52MlW_Ubwd3E0OV-25" value="" style="endArrow=classic;html=1;exitX=0.401;exitY=1.214;exitDx=0;exitDy=0;exitPerimeter=0;entryX=0.473;entryY=-0.131;entryDx=0;entryDy=0;entryPerimeter=0;" edge="1" parent="1" source="jvqDE52MlW_Ubwd3E0OV-24" target="jvqDE52MlW_Ubwd3E0OV-26">
          <mxGeometry width="50" height="50" relative="1" as="geometry">
            <mxPoint x="775" y="-230" as="sourcePoint" />
            <mxPoint x="825" y="-280" as="targetPoint" />
          </mxGeometry>
        </mxCell>
        <mxCell id="jvqDE52MlW_Ubwd3E0OV-26" value="&lt;div style=&quot;color: rgb(238 , 255 , 255) ; background-color: rgb(38 , 50 , 56) ; font-family: &amp;#34;consolas&amp;#34; , &amp;#34;courier new&amp;#34; , monospace ; font-size: 14px ; line-height: 19px ; white-space: pre&quot;&gt;&lt;span style=&quot;color: #89ddff&quot;&gt;this.&lt;/span&gt;getter&lt;span style=&quot;color: #89ddff&quot;&gt;.&lt;/span&gt;&lt;span style=&quot;color: #82aaff&quot;&gt;call&lt;/span&gt;&lt;/div&gt;" style="text;html=1;align=center;verticalAlign=middle;resizable=0;points=[];autosize=1;" vertex="1" parent="1">
          <mxGeometry x="755" y="-270" width="140" height="20" as="geometry" />
        </mxCell>
        <mxCell id="jvqDE52MlW_Ubwd3E0OV-29" value="&lt;div style=&quot;color: rgb(238 , 255 , 255) ; background-color: rgb(38 , 50 , 56) ; font-family: &amp;#34;consolas&amp;#34; , &amp;#34;courier new&amp;#34; , monospace ; font-size: 14px ; line-height: 19px ; white-space: pre&quot;&gt;vm&lt;span style=&quot;color: #89ddff&quot;&gt;.&lt;/span&gt;&lt;span style=&quot;color: #82aaff&quot;&gt;_update()&lt;/span&gt;&lt;/div&gt;" style="text;html=1;align=center;verticalAlign=middle;resizable=0;points=[];autosize=1;" vertex="1" parent="1">
          <mxGeometry x="770" y="-150" width="110" height="20" as="geometry" />
        </mxCell>
        <mxCell id="jvqDE52MlW_Ubwd3E0OV-33" value="" style="endArrow=classic;html=1;exitX=0.488;exitY=1.014;exitDx=0;exitDy=0;exitPerimeter=0;entryX=0.433;entryY=0;entryDx=0;entryDy=0;entryPerimeter=0;" edge="1" parent="1" source="jvqDE52MlW_Ubwd3E0OV-26" target="jvqDE52MlW_Ubwd3E0OV-35">
          <mxGeometry width="50" height="50" relative="1" as="geometry">
            <mxPoint x="695" y="-90" as="sourcePoint" />
            <mxPoint x="824.7" y="-210" as="targetPoint" />
          </mxGeometry>
        </mxCell>
        <mxCell id="jvqDE52MlW_Ubwd3E0OV-34" value="" style="endArrow=classic;html=1;exitX=0.431;exitY=1.071;exitDx=0;exitDy=0;exitPerimeter=0;entryX=0.505;entryY=-0.1;entryDx=0;entryDy=0;entryPerimeter=0;" edge="1" parent="1" source="jvqDE52MlW_Ubwd3E0OV-35" target="jvqDE52MlW_Ubwd3E0OV-29">
          <mxGeometry width="50" height="50" relative="1" as="geometry">
            <mxPoint x="824.8" y="-188.58000000000038" as="sourcePoint" />
            <mxPoint x="755" y="-130" as="targetPoint" />
          </mxGeometry>
        </mxCell>
        <mxCell id="jvqDE52MlW_Ubwd3E0OV-35" value="&lt;div style=&quot;color: rgb(238 , 255 , 255) ; background-color: rgb(38 , 50 , 56) ; font-family: &amp;#34;consolas&amp;#34; , &amp;#34;courier new&amp;#34; , monospace ; font-size: 14px ; line-height: 19px ; white-space: pre&quot;&gt;vm&lt;span style=&quot;color: rgb(137 , 221 , 255)&quot;&gt;.&lt;/span&gt;&lt;span style=&quot;color: rgb(130 , 170 , 255)&quot;&gt;_render:VNode()&lt;/span&gt;&lt;/div&gt;" style="text;html=1;align=center;verticalAlign=middle;resizable=0;points=[];autosize=1;" vertex="1" parent="1">
          <mxGeometry x="750" y="-210" width="150" height="20" as="geometry" />
        </mxCell>
        <mxCell id="jvqDE52MlW_Ubwd3E0OV-36" value="&lt;div style=&quot;color: rgb(238 , 255 , 255) ; background-color: rgb(38 , 50 , 56) ; font-family: &amp;#34;consolas&amp;#34; , &amp;#34;courier new&amp;#34; , monospace ; font-size: 14px ; line-height: 19px ; white-space: pre&quot;&gt;&lt;span style=&quot;color: #82aaff&quot;&gt;vm.__patch__()&lt;/span&gt;&lt;/div&gt;" style="text;html=1;align=center;verticalAlign=middle;resizable=0;points=[];autosize=1;" vertex="1" parent="1">
          <mxGeometry x="770" y="-89" width="120" height="20" as="geometry" />
        </mxCell>
        <mxCell id="jvqDE52MlW_Ubwd3E0OV-37" value="" style="endArrow=classic;html=1;exitX=0.531;exitY=1.014;exitDx=0;exitDy=0;exitPerimeter=0;entryX=0.473;entryY=0.021;entryDx=0;entryDy=0;entryPerimeter=0;" edge="1" parent="1" source="jvqDE52MlW_Ubwd3E0OV-29" target="jvqDE52MlW_Ubwd3E0OV-36">
          <mxGeometry width="50" height="50" relative="1" as="geometry">
            <mxPoint x="655" y="-70" as="sourcePoint" />
            <mxPoint x="705" y="-120" as="targetPoint" />
          </mxGeometry>
        </mxCell>
        <mxCell id="jvqDE52MlW_Ubwd3E0OV-38" value="" style="endArrow=classic;html=1;exitX=-0.002;exitY=0.9;exitDx=0;exitDy=0;exitPerimeter=0;entryX=0.586;entryY=-0.086;entryDx=0;entryDy=0;entryPerimeter=0;" edge="1" parent="1" source="Anq4O1ZWj0-ePRSyiXMI-35" target="Anq4O1ZWj0-ePRSyiXMI-38">
          <mxGeometry width="50" height="50" relative="1" as="geometry">
            <mxPoint x="1230" y="-1760" as="sourcePoint" />
            <mxPoint x="1280" y="-1810" as="targetPoint" />
          </mxGeometry>
        </mxCell>
        <mxCell id="jvqDE52MlW_Ubwd3E0OV-39" value="" style="endArrow=none;html=1;entryX=0.54;entryY=0.995;entryDx=0;entryDy=0;entryPerimeter=0;exitX=0.54;exitY=-0.057;exitDx=0;exitDy=0;exitPerimeter=0;" edge="1" parent="1" source="jvqDE52MlW_Ubwd3E0OV-17" target="Anq4O1ZWj0-ePRSyiXMI-35">
          <mxGeometry width="50" height="50" relative="1" as="geometry">
            <mxPoint x="1260" y="-1580" as="sourcePoint" />
            <mxPoint x="1310" y="-1630" as="targetPoint" />
          </mxGeometry>
        </mxCell>
        <mxCell id="jvqDE52MlW_Ubwd3E0OV-40" value="&lt;div style=&quot;color: rgb(238 , 255 , 255) ; background-color: rgb(38 , 50 , 56) ; font-family: &amp;#34;consolas&amp;#34; , &amp;#34;courier new&amp;#34; , monospace ; font-size: 14px ; line-height: 19px ; white-space: pre&quot;&gt;&lt;span style=&quot;color: #82aaff&quot;&gt;popTarget()&lt;/span&gt;&lt;/div&gt;" style="text;html=1;align=center;verticalAlign=middle;resizable=0;points=[];autosize=1;" vertex="1" parent="1">
          <mxGeometry x="1471" y="-1830" width="100" height="20" as="geometry" />
        </mxCell>
        <mxCell id="jvqDE52MlW_Ubwd3E0OV-41" value="" style="endArrow=classic;html=1;exitX=0.452;exitY=1.093;exitDx=0;exitDy=0;exitPerimeter=0;entryX=0.583;entryY=0;entryDx=0;entryDy=0;entryPerimeter=0;" edge="1" parent="1" source="jvqDE52MlW_Ubwd3E0OV-40" target="Anq4O1ZWj0-ePRSyiXMI-98">
          <mxGeometry width="50" height="50" relative="1" as="geometry">
            <mxPoint x="1590" y="-1760" as="sourcePoint" />
            <mxPoint x="1640" y="-1810" as="targetPoint" />
          </mxGeometry>
        </mxCell>
        <mxCell id="jvqDE52MlW_Ubwd3E0OV-42" value="" style="endArrow=classic;html=1;exitX=0.079;exitY=1.093;exitDx=0;exitDy=0;exitPerimeter=0;entryX=0.914;entryY=-0.183;entryDx=0;entryDy=0;entryPerimeter=0;" edge="1" parent="1" source="jvqDE52MlW_Ubwd3E0OV-40" target="Anq4O1ZWj0-ePRSyiXMI-99">
          <mxGeometry width="50" height="50" relative="1" as="geometry">
            <mxPoint x="1230" y="-1590" as="sourcePoint" />
            <mxPoint x="1280" y="-1640" as="targetPoint" />
          </mxGeometry>
        </mxCell>
        <mxCell id="jvqDE52MlW_Ubwd3E0OV-43" value="" style="endArrow=none;html=1;exitX=0.868;exitY=-0.044;exitDx=0;exitDy=0;exitPerimeter=0;entryX=0.319;entryY=1.11;entryDx=0;entryDy=0;entryPerimeter=0;" edge="1" parent="1" source="Anq4O1ZWj0-ePRSyiXMI-35" target="Anq4O1ZWj0-ePRSyiXMI-95">
          <mxGeometry width="50" height="50" relative="1" as="geometry">
            <mxPoint x="1350" y="-1850" as="sourcePoint" />
            <mxPoint x="1400" y="-1900" as="targetPoint" />
          </mxGeometry>
        </mxCell>
        <mxCell id="jvqDE52MlW_Ubwd3E0OV-44" value="" style="endArrow=classic;html=1;entryX=0.06;entryY=0.981;entryDx=0;entryDy=0;entryPerimeter=0;exitX=0.87;exitY=-0.131;exitDx=0;exitDy=0;exitPerimeter=0;" edge="1" parent="1" source="Anq4O1ZWj0-ePRSyiXMI-95" target="Anq4O1ZWj0-ePRSyiXMI-101">
          <mxGeometry width="50" height="50" relative="1" as="geometry">
            <mxPoint x="1380" y="-1870" as="sourcePoint" />
            <mxPoint x="1430" y="-1920" as="targetPoint" />
          </mxGeometry>
        </mxCell>
        <mxCell id="jvqDE52MlW_Ubwd3E0OV-45" value="" style="endArrow=classic;html=1;exitX=1.017;exitY=0.593;exitDx=0;exitDy=0;exitPerimeter=0;entryX=0;entryY=0.5;entryDx=0;entryDy=0;" edge="1" parent="1" source="jvqDE52MlW_Ubwd3E0OV-5" target="jvqDE52MlW_Ubwd3E0OV-12">
          <mxGeometry width="50" height="50" relative="1" as="geometry">
            <mxPoint x="440" y="-620" as="sourcePoint" />
            <mxPoint x="490" y="-670" as="targetPoint" />
          </mxGeometry>
        </mxCell>
      </root>
    </mxGraphModel>
  </diagram>
</mxfile>
